<svg width="129" height="111" viewBox="0 0 86 74" fill="none" xmlns="http://www.w3.org/2000/svg"><g clip-path="url(#clip0_2535_16125)"><path d="M85.998 48.752H0.998047V65.4951H85.998V48.752Z" fill="#1EC0E8"></path><path d="M10.8315 62.9706H3.76172V51.1465H10.5624V53.3158H6.41448V55.9383H10.2705V58.0999H6.41448V60.8039H10.8315V62.9706Z" fill="white"></path><path d="M25.9055 51.1465L21.8438 62.9706H18.8357L14.8223 51.1465H17.6832L20.1405 59.3755C20.2609 59.759 20.3408 60.1541 20.3791 60.5543H20.4299C20.4765 60.1433 20.5615 59.7375 20.6837 59.3424L23.1258 51.1465H25.9055Z" fill="white"></path><path d="M37.7553 62.9706H30.6855V51.1465H37.4863V53.3158H33.3409V55.9383H37.1969V58.0999H33.3409V60.8039H37.7553V62.9706Z" fill="white"></path><path d="M53.6216 62.9706H50.9409L46.0822 55.5411C45.8677 55.2251 45.6703 54.8979 45.4907 54.5608H45.4577C45.5 54.9784 45.522 55.6157 45.5237 56.4729V62.9706H43.0156V51.1465H45.8766L50.5551 58.3443C50.7683 58.6702 50.9638 58.991 51.1465 59.3093H51.1795C51.1217 58.7699 51.0997 58.2272 51.1135 57.6849V51.1465H53.6216V62.9706Z" fill="white"></path><path d="M67.9654 53.3158H64.6018V62.9706H61.9389V53.3158H58.5957V51.1465H67.9679L67.9654 53.3158Z" fill="white"></path><path d="M77.8996 63.1774C76.2072 63.1774 74.8313 62.6266 73.7719 61.525C72.7125 60.4234 72.1811 58.9857 72.1777 57.2119C72.1777 55.3447 72.7176 53.8332 73.7973 52.6773C74.877 51.5213 76.3071 50.9434 78.0874 50.9434C79.7713 50.9434 81.132 51.4959 82.1694 52.6009C83.2068 53.7059 83.7263 55.1631 83.728 56.9725C83.728 58.8312 83.189 60.3292 82.111 61.4664C81.033 62.6037 79.6292 63.174 77.8996 63.1774ZM78.0138 53.2476C77.5871 53.232 77.1628 53.3194 76.7768 53.5023C76.3907 53.6853 76.0541 53.9586 75.7951 54.2991C75.2468 55.0002 74.9727 55.9278 74.9727 57.082C74.9727 58.2363 75.2468 59.1622 75.7951 59.8598C76.059 60.1777 76.3889 60.434 76.7618 60.6107C77.1347 60.7875 77.5416 60.8804 77.954 60.8831C78.3664 60.8858 78.7744 60.7981 79.1496 60.6262C79.5247 60.4543 79.8579 60.2023 80.1258 59.8878C80.664 59.2258 80.9331 58.3067 80.9331 57.1304C80.9331 55.9066 80.6725 54.9526 80.1512 54.2686C79.905 53.9361 79.5817 53.6688 79.2092 53.49C78.8368 53.3112 78.4264 53.2263 78.0138 53.2425V53.2476Z" fill="white"></path><path d="M4.54293 72.1693V73.9109H3.4082V68.8594H5.18517C6.45444 68.8594 7.08992 69.3958 7.09161 70.4685C7.09907 70.7021 7.05362 70.9344 6.95864 71.1479C6.86366 71.3613 6.72165 71.5504 6.54329 71.7008C6.13006 72.0304 5.61089 72.1971 5.08364 72.1693H4.54293ZM4.54293 69.7327V71.3062H4.98972C5.59389 71.3062 5.89597 71.0414 5.89597 70.5118C5.89597 69.9822 5.59389 69.7225 4.98972 69.7327H4.54293Z" fill="black"></path><path d="M19.4509 73.9109H18.2146L17.8567 72.788H16.0645L15.7091 73.9109H14.4805L16.3158 68.8594H17.6612L19.4509 73.9109ZM17.5978 71.9122L17.0571 70.2139C17.0126 70.0663 16.9837 69.9144 16.9708 69.7607H16.9428C16.9315 69.9104 16.9026 70.0583 16.8565 70.2012L16.3082 71.9122H17.5978Z" fill="black"></path><path d="M30.887 73.7329C30.4322 73.9283 29.9396 74.0196 29.4452 74.0002C29.1107 74.0181 28.7762 73.9665 28.4625 73.8486C28.1489 73.7308 27.8629 73.5492 27.6225 73.3153C27.3967 73.0714 27.2218 72.7848 27.108 72.4721C26.9942 72.1595 26.9439 71.8272 26.9599 71.4948C26.9448 71.1335 27.0031 70.7729 27.1314 70.435C27.2598 70.0971 27.4553 69.7889 27.7063 69.5292C27.9594 69.2752 28.2621 69.0763 28.5953 68.9448C28.9286 68.8134 29.2853 68.7523 29.6432 68.7654C30.0656 68.7548 30.4866 68.8186 30.887 68.9538V70.0486C30.5378 69.8438 30.1391 69.739 29.7346 69.7456C29.523 69.7368 29.3119 69.7723 29.1148 69.8499C28.9176 69.9275 28.7388 70.0455 28.5897 70.1963C28.4398 70.3588 28.3239 70.5497 28.2489 70.7579C28.1739 70.9661 28.1413 71.1872 28.1531 71.4083C28.1313 71.8369 28.2791 72.2569 28.5643 72.5769C28.7077 72.7237 28.8805 72.8384 29.0712 72.9134C29.262 72.9885 29.4664 73.0222 29.6711 73.0123C30.0983 73.0159 30.5185 72.9033 30.887 72.6864V73.7329Z" fill="black"></path><path d="M43.145 73.9108H41.7133L40.2435 71.7237C40.1933 71.6343 40.1492 71.5416 40.1115 71.4462H40.0937V73.9185H38.959V68.8594H40.0937V71.2476H40.1115C40.1394 71.1814 40.1851 71.0872 40.2511 70.965L41.6422 68.8594H42.9952L41.2386 71.268L43.145 73.9108Z" fill="black"></path><path d="M55.2513 73.9109H54.0252L53.6673 72.788H51.8751L51.5197 73.9109H50.291L52.1238 68.8594H53.4693L55.2513 73.9109ZM53.3956 71.9122L52.8549 70.2139C52.8126 70.0659 52.7846 69.9141 52.7712 69.7607H52.7559C52.7437 69.9105 52.7139 70.0584 52.6671 70.2012L52.1213 71.9122H53.3956Z" fill="black"></path><path d="M67.2115 73.5717C66.6481 73.8742 66.0149 74.0218 65.3762 73.9995C64.6743 74.0376 63.9859 73.7949 63.4621 73.3248C63.2227 73.081 63.0368 72.7897 62.9161 72.4697C62.7955 72.1496 62.7428 71.8078 62.7615 71.4661C62.7477 71.1071 62.8083 70.7491 62.9393 70.4147C63.0704 70.0804 63.2692 69.7769 63.523 69.5234C63.7947 69.269 64.1142 69.0715 64.463 68.9425C64.8117 68.8135 65.1826 68.7557 65.5539 68.7723C66.0337 68.7644 66.5113 68.8402 66.9653 68.9964V70.0632C66.5283 69.8249 66.0358 69.708 65.5386 69.7246C65.3255 69.7163 65.113 69.7531 64.9149 69.8325C64.7168 69.9119 64.5375 70.0321 64.3887 70.1854C64.1093 70.5264 63.9528 70.952 63.9445 71.3932C63.9362 71.8345 64.0766 72.2657 64.343 72.617C64.4818 72.7609 64.6495 72.8735 64.8352 72.9473C65.0208 73.0211 65.2199 73.0543 65.4193 73.0447C65.641 73.0534 65.862 73.0134 66.0667 72.9276V71.9397H65.0512V71.0307H67.1938L67.2115 73.5717Z" fill="black"></path><path d="M78.3959 73.9109H75.375V68.8594H78.2791V69.7862H76.5021V70.909H78.1496V71.8332H76.5021V72.9968H78.3959V73.9109Z" fill="black"></path><path d="M57.1887 39.1078V40.2791L55.6504 39.915V40.1874L57.5416 40.6355V39.1078C57.545 39.1083 57.5485 39.1079 57.5517 39.1067C57.555 39.1056 57.558 39.1038 57.5604 39.1013C57.5629 39.0988 57.5647 39.0959 57.5659 39.0926C57.567 39.0893 57.5674 39.0858 57.567 39.0824C57.567 39.0792 57.5663 39.076 57.565 39.073C57.5637 39.07 57.5618 39.0674 57.5594 39.0652C57.557 39.063 57.5542 39.0614 57.5511 39.0604C57.548 39.0594 57.5448 39.0591 57.5416 39.0595C57.5459 39.0244 57.5375 38.9889 57.518 38.9594C57.4984 38.93 57.4689 38.9086 57.435 38.8991C57.4007 38.8787 57.3733 38.8485 57.3563 38.8125C57.3378 38.8484 57.3096 38.8784 57.275 38.8991C57.241 38.9086 57.2116 38.93 57.192 38.9594C57.1725 38.9889 57.1641 39.0244 57.1684 39.0595C57.1652 39.0591 57.162 39.0594 57.1589 39.0604C57.1558 39.0614 57.153 39.063 57.1506 39.0652C57.1482 39.0674 57.1463 39.07 57.145 39.073C57.1437 39.076 57.143 39.0792 57.143 39.0824C57.1397 39.0885 57.1388 39.0956 57.1407 39.1023C57.1426 39.109 57.1471 39.1147 57.1532 39.118C57.1592 39.1214 57.1664 39.1222 57.173 39.1203C57.1797 39.1184 57.1854 39.1139 57.1887 39.1078Z" fill="#1FC0E8"></path><path d="M52.1387 38.2721V38.5063H52.4408V38.8169C52.4725 38.8834 52.5108 38.9465 52.555 39.0053C52.6387 39.1072 52.6796 39.2378 52.6692 39.3694V39.9143H52.3341V40.1867H55.4641V39.9194L55.6393 39.955V38.6234C55.646 38.6234 55.6525 38.6207 55.6573 38.616C55.662 38.6112 55.6647 38.6047 55.6647 38.598C55.6647 38.5912 55.662 38.5847 55.6573 38.5799C55.6525 38.5752 55.646 38.5725 55.6393 38.5725C55.6425 38.5379 55.6336 38.5032 55.6142 38.4744C55.5947 38.4456 55.5659 38.4245 55.5327 38.4146C55.5327 38.393 55.5241 38.3723 55.5089 38.357C55.4937 38.3417 55.473 38.3332 55.4515 38.3332C55.4299 38.3332 55.4093 38.3417 55.394 38.357C55.3788 38.3723 55.3702 38.393 55.3702 38.4146C55.337 38.4245 55.3082 38.4456 55.2887 38.4744C55.2693 38.5032 55.2604 38.5379 55.2636 38.5725C55.2569 38.5725 55.2504 38.5752 55.2456 38.5799C55.2409 38.5847 55.2382 38.5912 55.2382 38.598C55.2382 38.6047 55.2409 38.6112 55.2456 38.616C55.2504 38.6207 55.2569 38.6234 55.2636 38.6234H55.2941V39.9092H54.6061V39.3643C54.6009 39.2983 54.6093 39.232 54.6307 39.1693C54.6521 39.1067 54.686 39.0492 54.7305 39.0002C54.7785 38.942 54.8202 38.8789 54.8549 38.8118V38.5012H55.157V38.267H54.9336C54.9336 37.5159 54.5604 37.3529 54.2025 37.1747C53.9656 37.0356 53.7742 36.8303 53.6516 36.584C53.5277 36.8302 53.3355 37.0353 53.0982 37.1747C52.7403 37.3529 52.3671 37.5159 52.3671 38.267L52.1387 38.2721ZM53.7633 39.3694C53.7587 39.3 53.771 39.2306 53.7993 39.1671C53.8277 39.1036 53.8711 39.0481 53.9258 39.0053C53.9216 38.9819 53.9226 38.9578 53.9287 38.9348C53.9348 38.9117 53.9459 38.8903 53.9611 38.8721C53.9764 38.8538 53.9954 38.8391 54.017 38.829C54.0385 38.8189 54.062 38.8137 54.0857 38.8137C54.1095 38.8137 54.133 38.8189 54.1545 38.829C54.176 38.8391 54.1951 38.8538 54.2103 38.8721C54.2256 38.8903 54.2366 38.9117 54.2427 38.9348C54.2488 38.9578 54.2498 38.9819 54.2456 39.0053C54.2996 39.0486 54.3423 39.1043 54.3701 39.1677C54.3979 39.2311 54.4101 39.3003 54.4056 39.3694V39.9143H53.7709L53.7633 39.3694ZM52.9028 39.3694C52.8982 39.3003 52.9104 39.2311 52.9383 39.1677C52.9661 39.1043 53.0088 39.0486 53.0627 39.0053C53.124 38.9498 53.1778 38.8865 53.2226 38.8169C53.269 38.886 53.3236 38.9493 53.3851 39.0053C53.439 39.0486 53.4817 39.1043 53.5095 39.1677C53.5374 39.2311 53.5495 39.3003 53.545 39.3694V39.9143H52.9028V39.3694Z" fill="#1FC0E8"></path><path d="M11.0044 36.4187H11.2582V36.1641H3.89648V36.5867H10.8038C10.8042 36.5619 10.8099 36.5374 10.8206 36.5149C10.8313 36.4925 10.8467 36.4726 10.8657 36.4567C10.8848 36.4407 10.907 36.4291 10.9309 36.4225C10.9548 36.416 10.9799 36.4146 11.0044 36.4187Z" fill="#1FC0E8"></path><path d="M11.6949 31.8688V33.5722H11.6441C11.6159 33.5722 11.5887 33.5835 11.5687 33.6035C11.5488 33.6236 11.5375 33.6508 11.5375 33.6791C11.5375 33.7075 11.5488 33.7347 11.5687 33.7547C11.5887 33.7748 11.6159 33.7861 11.6441 33.7861H13.4211C13.4494 33.7861 13.4765 33.7748 13.4965 33.7547C13.5165 33.7347 13.5277 33.7075 13.5277 33.6791C13.5277 33.6508 13.5165 33.6236 13.4965 33.6035C13.4765 33.5835 13.4494 33.5722 13.4211 33.5722H13.3703V31.8688C13.4206 31.8632 13.4671 31.8392 13.5008 31.8014C13.5345 31.7636 13.5531 31.7146 13.5531 31.6639C13.5531 31.6131 13.5345 31.5642 13.5008 31.5264C13.4671 31.4886 13.4206 31.4645 13.3703 31.4589V31.324C13.3703 30.886 12.5276 29.8574 12.5276 29.8574C12.5276 29.8574 11.6848 30.8759 11.6848 31.324V31.4589C11.6345 31.4645 11.588 31.4886 11.5543 31.5264C11.5206 31.5642 11.502 31.6131 11.502 31.6639C11.502 31.7146 11.5206 31.7636 11.5543 31.8014C11.588 31.8392 11.6345 31.8632 11.6848 31.8688H11.6949ZM12.9997 32.2151C12.9997 32.1158 13.0505 32.0369 13.114 32.0369C13.1774 32.0369 13.2282 32.1158 13.2282 32.2151V32.9637H12.9997V32.2151ZM12.36 32.2151C12.36 32.1917 12.3646 32.1685 12.3735 32.1469C12.3825 32.1253 12.3956 32.1056 12.4121 32.0891C12.4286 32.0725 12.4481 32.0594 12.4697 32.0505C12.4913 32.0415 12.5144 32.0369 12.5377 32.0369C12.5613 32.0365 12.5846 32.0409 12.6065 32.0497C12.6283 32.0585 12.6482 32.0716 12.665 32.0882C12.6818 32.1048 12.6951 32.1245 12.7042 32.1463C12.7133 32.1681 12.7179 32.1915 12.7179 32.2151V32.9637H12.36V32.2151ZM11.8523 32.2151C11.8523 32.1158 11.9031 32.0369 11.964 32.0369C12.0249 32.0369 12.0782 32.1158 12.0782 32.2151V32.9637H11.8523V32.2151Z" fill="#1FC0E8"></path><path d="M20.5163 44.0597H20.2624C20.1355 40.9764 17.4701 40.541 17.4701 40.541C17.4701 40.541 14.7945 40.9764 14.6599 44.0597H14.4238V44.3958H14.9696C15.0839 44.3958 15.0559 44.2329 15.0559 44.2329C15.16 44.2329 15.1473 44.0597 15.1473 44.0597H14.9595C15.0864 41.315 17.4701 40.9153 17.4701 40.9153C17.4701 40.9153 19.8436 41.3048 19.9807 44.0495H19.7903C19.7903 44.0495 19.7903 44.2227 19.8842 44.2227C19.8842 44.2227 19.8537 44.3856 19.9705 44.3856H20.5163V44.0597Z" fill="#1FC0E8"></path><path d="M65.9798 33.2393H82.856V33.0484L83.0311 32.8574H65.8047L65.9798 33.0484V33.2393Z" fill="#1FC0E8"></path><path d="M82.4907 31.334H66.3457V32.635H82.4907V31.334Z" fill="#1FC0E8"></path><path d="M82.0171 29.5781H66.8164V30.9046H82.0171V29.5781Z" fill="#1FC0E8"></path><path d="M77.7707 25.8242H71.0664V26.3614H77.7707V25.8242Z" fill="#1FC0E8"></path><path d="M74.418 24.5235C73.536 24.5211 72.6845 24.8478 72.0293 25.44H76.8093C76.1527 24.8485 75.3007 24.5219 74.418 24.5235Z" fill="#1FC0E8"></path><path d="M66.0347 34.2046H82.7992L82.9159 33.8711H65.918L66.0347 34.2046Z" fill="#1FC0E8"></path><path d="M80.8211 26.6328H68.0117V29.3699H80.8211V26.6328ZM70.6289 28.7792C70.4857 28.7797 70.3456 28.7376 70.2263 28.6581C70.107 28.5787 70.0139 28.4656 69.9587 28.333C69.9036 28.2005 69.8889 28.0545 69.9165 27.9135C69.9442 27.7726 70.0129 27.6431 70.1139 27.5413C70.215 27.4396 70.3439 27.3702 70.4843 27.342C70.6247 27.3138 70.7703 27.3281 70.9027 27.3829C71.035 27.4377 71.1482 27.5308 71.2278 27.6501C71.3074 27.7695 71.3499 27.9099 71.3499 28.0535C71.3499 28.2456 71.274 28.4297 71.1389 28.5657C71.0038 28.7018 70.8204 28.7785 70.6289 28.7792ZM77.2291 28.8479H75.9345V28.9778H72.9085V28.8479H71.6139V27.2617H72.9085V27.1293H75.9345V27.2617H77.2291V28.8479ZM78.209 28.7792C78.0659 28.7792 77.926 28.7366 77.807 28.6569C77.6881 28.5772 77.5953 28.4638 77.5406 28.3312C77.4858 28.1986 77.4715 28.0527 77.4994 27.912C77.5273 27.7712 77.5962 27.6419 77.6974 27.5404C77.7986 27.439 77.9275 27.3698 78.0678 27.3418C78.2082 27.3138 78.3536 27.3282 78.4858 27.3831C78.618 27.4381 78.731 27.5311 78.8105 27.6504C78.89 27.7697 78.9325 27.91 78.9325 28.0535C78.9325 28.1493 78.9136 28.244 78.8769 28.3324C78.8402 28.4208 78.7865 28.501 78.7188 28.5685C78.651 28.6359 78.5707 28.6893 78.4823 28.7254C78.394 28.7616 78.2993 28.7799 78.2039 28.7792H78.209Z" fill="#1FC0E8"></path><path d="M69.0919 38.8203H66.8555V39.9762H69.0919V38.8203Z" fill="#1FC0E8"></path><path d="M69.0919 37.002H66.8555V37.473H69.0919V37.002Z" fill="#1FC0E8"></path><path d="M67.9262 36.0277C68.0372 36.0277 68.1457 35.9947 68.2379 35.9329C68.3302 35.8711 68.4021 35.7832 68.4445 35.6804C68.487 35.5776 68.4981 35.4644 68.4765 35.3553C68.4548 35.2461 68.4014 35.1458 68.3229 35.0672C68.2445 34.9885 68.1445 34.9349 68.0357 34.9132C67.9269 34.8914 67.8141 34.9026 67.7116 34.9452C67.609 34.9878 67.5214 35.0599 67.4598 35.1524C67.3981 35.245 67.3652 35.3537 67.3652 35.465C67.3652 35.6143 67.4243 35.7574 67.5295 35.8629C67.6348 35.9684 67.7775 36.0277 67.9262 36.0277Z" fill="#1FC0E8"></path><path d="M70.414 34.5497V34.4376H65.5325V35.2473H65.3573V35.0894H65.2253V34.5242C65.2224 34.4884 65.2268 34.4523 65.2381 34.4182C65.2494 34.384 65.2675 34.3526 65.2913 34.3256C65.3172 34.2943 65.3393 34.2602 65.3573 34.2238V34.0557H65.6112C65.6354 34.0557 65.6586 34.0461 65.6758 34.0289C65.6929 34.0117 65.7025 33.9884 65.7025 33.9641C65.7025 33.9395 65.693 33.9159 65.6759 33.8983C65.6589 33.8807 65.6356 33.8705 65.6112 33.8699H65.4131C65.4256 33.7406 65.393 33.6111 65.3207 33.5033C65.2485 33.3956 65.1412 33.3163 65.0171 33.2792C65.0171 33.1995 64.9856 33.1231 64.9294 33.0667C64.8732 33.0104 64.797 32.9787 64.7176 32.9787C64.6381 32.9787 64.5619 33.0104 64.5058 33.0667C64.4496 33.1231 64.418 33.1995 64.418 33.2792C64.294 33.3163 64.1867 33.3956 64.1145 33.5033C64.0422 33.6111 64.0096 33.7406 64.022 33.8699H63.824C63.7995 33.8705 63.7763 33.8807 63.7592 33.8983C63.7422 33.9159 63.7326 33.9395 63.7326 33.9641C63.7326 33.9884 63.7423 34.0117 63.7594 34.0289C63.7765 34.0461 63.7998 34.0557 63.824 34.0557H64.0779V34.2238C64.095 34.2595 64.1154 34.2936 64.1388 34.3256C64.162 34.3528 64.1795 34.3844 64.1904 34.4185C64.2013 34.4526 64.2054 34.4885 64.2023 34.5242V35.0793H64.0779V35.2371H63.824C63.7998 35.2371 63.7765 35.2468 63.7594 35.264C63.7423 35.2812 63.7326 35.3045 63.7326 35.3288C63.7326 35.3531 63.7423 35.3764 63.7594 35.3936C63.7765 35.4108 63.7998 35.4204 63.824 35.4204V35.5528H63.923V35.4204H64.0119V35.5528H64.0576L63.9053 39.2752H63.7377C63.7135 39.2752 63.6902 39.2849 63.6731 39.3021C63.656 39.3193 63.6463 39.3426 63.6463 39.3669C63.6463 39.3912 63.656 39.4145 63.6731 39.4317C63.6902 39.4489 63.7135 39.4586 63.7377 39.4586V39.591H63.8392V39.4586H63.9002L63.7631 42.8474H63.6184C63.5942 42.8474 63.5709 42.8571 63.5538 42.8743C63.5367 42.8915 63.527 42.9148 63.527 42.9391C63.527 42.9634 63.5367 42.9867 63.5538 43.0039C63.5709 43.0211 63.5942 43.0308 63.6184 43.0308V43.1606H63.7199V43.0308H63.7555L63.6057 46.6946H60.7118L60.6026 44.0059H60.6763V43.9066C60.6947 43.906 60.7121 43.8982 60.7249 43.8849C60.7377 43.8716 60.7448 43.8538 60.7448 43.8353C60.7448 43.8171 60.7376 43.7996 60.7247 43.7867C60.7119 43.7738 60.6944 43.7666 60.6763 43.7666H60.5899L60.4859 41.1874H60.5442V41.2867H60.6204V41.1874C60.6388 41.1867 60.6562 41.1789 60.669 41.1656C60.6818 41.1523 60.689 41.1346 60.6889 41.1161C60.6889 41.0979 60.6817 41.0804 60.6689 41.0675C60.656 41.0546 60.6386 41.0473 60.6204 41.0473H60.4909L60.3767 38.2135H60.4097V38.1142H60.4757V38.2135H60.5544V38.1142C60.573 38.1136 60.5908 38.1059 60.604 38.0926C60.6172 38.0794 60.6249 38.0616 60.6255 38.0429C60.6248 38.0245 60.6171 38.007 60.6038 37.9942C60.5905 37.9813 60.5728 37.9742 60.5544 37.9742H60.3716V37.8596H60.2676V37.437C60.2656 37.4096 60.2693 37.3821 60.2785 37.3563C60.2877 37.3304 60.3021 37.3067 60.3209 37.2867C60.34 37.2629 60.357 37.2373 60.3716 37.2104V37.0805H60.5544C60.5728 37.0805 60.5905 37.0734 60.6038 37.0605C60.6171 37.0477 60.6248 37.0302 60.6255 37.0118C60.6249 36.9931 60.6172 36.9753 60.604 36.962C60.5908 36.9488 60.573 36.9411 60.5544 36.9405H60.3716C60.381 36.8422 60.3559 36.7438 60.3008 36.662C60.2457 36.5803 60.1639 36.5203 60.0695 36.4924C60.0695 36.4623 60.0636 36.4325 60.0522 36.4047C60.0407 36.3769 60.0238 36.3516 60.0026 36.3303C59.9814 36.309 59.9562 36.2922 59.9285 36.2807C59.9008 36.2691 59.8711 36.2632 59.8411 36.2632C59.8111 36.2632 59.7814 36.2691 59.7537 36.2807C59.7259 36.2922 59.7007 36.309 59.6795 36.3303C59.6583 36.3516 59.6415 36.3769 59.63 36.4047C59.6185 36.4325 59.6126 36.4623 59.6126 36.4924C59.5184 36.5203 59.437 36.5804 59.3823 36.6622C59.3276 36.7441 59.3031 36.8425 59.3131 36.9405H59.1607C59.1423 36.9411 59.1249 36.9489 59.1121 36.9622C59.0993 36.9755 59.0922 36.9933 59.0922 37.0118C59.0922 37.03 59.0994 37.0475 59.1123 37.0604C59.1251 37.0733 59.1426 37.0805 59.1607 37.0805H59.3562V37.2104C59.3688 37.2373 59.3841 37.2629 59.4019 37.2867C59.4367 37.3287 59.454 37.3825 59.4501 37.437V37.8596H59.3562V37.9818H59.1709C59.1527 37.9818 59.1353 37.9891 59.1224 38.002C59.1096 38.0149 59.1024 38.0323 59.1024 38.0506C59.1024 38.069 59.1095 38.0868 59.1223 38.1001C59.1351 38.1134 59.1525 38.1212 59.1709 38.1219V38.2212H59.2471V38.1142H59.3131V38.2135H59.3486L59.2318 41.0473H59.1024C59.0839 41.0473 59.0662 41.0545 59.053 41.0673C59.0397 41.0801 59.0319 41.0976 59.0313 41.1161C59.0319 41.1348 59.0396 41.1526 59.0528 41.1658C59.066 41.179 59.0837 41.1867 59.1024 41.1874V41.2867H59.1811V41.1874H59.2268L59.1024 43.7666H58.9932C58.984 43.7662 58.9748 43.7678 58.9662 43.7711C58.9576 43.7744 58.9497 43.7794 58.9431 43.7858C58.9365 43.7922 58.9312 43.7999 58.9276 43.8084C58.924 43.8169 58.9221 43.8261 58.9221 43.8353C58.9221 43.8542 58.9296 43.8724 58.943 43.8857C58.9563 43.8991 58.9744 43.9066 58.9932 43.9066V44.0059H59.0694V43.9066H59.1024L58.9881 46.6946H57.5462V40.8844L55.655 40.4363V46.6946H55.4596V40.4363H52.3347V46.6946H52.19V38.7711H51.8523V37.8214C51.8523 37.8214 51.6163 37.5363 49.06 37.5133C49.0386 37.43 49.0008 37.3517 48.949 37.283C48.8971 37.2144 48.8321 37.1568 48.7579 37.1136C48.6762 37.0676 48.5853 37.0403 48.4918 37.0337C48.3983 37.0271 48.3045 37.0413 48.2172 37.0754C48.2857 36.9507 48.3441 36.8208 48.405 36.6986H48.7452C51.6569 36.6986 51.8625 36.9888 51.8625 36.9888C51.8625 36.9888 53.0353 35.9475 52.091 34.4147C51.7466 33.8777 51.311 33.4055 50.8039 33.0195C50.8102 33.0003 50.8152 32.9807 50.8192 32.9609C50.8419 32.8379 50.8282 32.7109 50.7797 32.5956C50.7311 32.4803 50.6499 32.3819 50.5461 32.3125C50.4423 32.2431 50.3205 32.2058 50.1958 32.2052C50.071 32.2046 49.9488 32.2407 49.8444 32.3091L49.7911 32.2709C49.8625 31.7491 49.9058 31.2239 49.9205 30.6974C50.0054 30.7984 50.1191 30.8709 50.2464 30.9049C50.3736 30.9389 50.5082 30.9328 50.632 30.8875C50.7557 30.8422 50.8625 30.7599 50.938 30.6516C51.0135 30.5434 51.054 30.4145 51.054 30.2824C51.054 30.1503 51.0135 30.0214 50.938 29.9132C50.8625 29.8049 50.7557 29.7226 50.632 29.6773C50.5082 29.632 50.3736 29.6259 50.2464 29.6599C50.1191 29.6939 50.0054 29.7664 49.9205 29.8674C49.9063 29.3135 49.8597 28.7609 49.7809 28.2124C49.8643 28.2808 49.9634 28.327 50.0692 28.3469C50.1751 28.3667 50.2842 28.3596 50.3865 28.3261C50.4889 28.2926 50.5812 28.2339 50.655 28.1553C50.7288 28.0766 50.7817 27.9807 50.8089 27.8762C50.836 27.7717 50.8366 27.662 50.8104 27.5573C50.7843 27.4525 50.7323 27.356 50.6593 27.2767C50.5862 27.1974 50.4945 27.1377 50.3924 27.1032C50.2904 27.0688 50.1814 27.0606 50.0754 27.0794C49.9848 27.0962 49.8987 27.1321 49.823 27.1848C49.7473 27.2375 49.6836 27.3057 49.6362 27.3849C49.5238 26.8439 49.3796 26.31 49.2047 25.786C49.3187 25.8527 49.4505 25.8824 49.5821 25.871C49.7136 25.8596 49.8384 25.8077 49.9393 25.7224C50.0403 25.637 50.1124 25.5224 50.1459 25.3943C50.1793 25.2662 50.1724 25.1309 50.1261 25.0069C50.082 24.8819 50.0003 24.7738 49.8923 24.6973C49.7844 24.6208 49.6554 24.5798 49.5232 24.5798C49.3911 24.5798 49.2621 24.6208 49.1542 24.6973C49.0462 24.7738 48.9645 24.8819 48.9203 25.0069C48.716 24.4884 48.4812 23.9826 48.2172 23.4919C48.3045 23.526 48.3983 23.5403 48.4918 23.5337C48.5853 23.5271 48.6762 23.4998 48.7579 23.4538C48.9057 23.3683 49.0135 23.2275 49.0578 23.0623C49.1021 22.8971 49.0791 22.721 48.994 22.5728C48.9088 22.4246 48.7684 22.3164 48.6037 22.272C48.439 22.2275 48.2634 22.2506 48.1156 22.336C48.034 22.3836 47.9642 22.449 47.9114 22.5275C47.8587 22.606 47.8243 22.6955 47.811 22.7892C47.5134 22.3102 47.1887 21.8486 46.8387 21.4067C46.9322 21.4277 47.0292 21.4272 47.1224 21.4052C47.2157 21.3831 47.3027 21.3401 47.3769 21.2794C47.4626 21.2103 47.5293 21.1203 47.5705 21.0181C47.6118 20.9159 47.6263 20.8048 47.6127 20.6954C47.5991 20.5859 47.5579 20.4818 47.4928 20.3929C47.4278 20.304 47.3412 20.2332 47.2412 20.1873C47.1412 20.1414 47.0312 20.1219 46.9216 20.1307C46.812 20.1395 46.7065 20.1762 46.615 20.2374C46.5235 20.2986 46.4492 20.3823 46.3991 20.4804C46.3489 20.5786 46.3246 20.6879 46.3285 20.7982C45.9551 20.374 45.5558 19.9735 45.1329 19.5989C45.241 19.601 45.348 19.5755 45.4437 19.5249C45.5394 19.4742 45.6207 19.4 45.6801 19.3093C45.7394 19.2185 45.7748 19.1141 45.783 19.0059C45.7912 18.8977 45.7718 18.7891 45.7268 18.6905C45.6818 18.5918 45.6125 18.5061 45.5255 18.4416C45.4385 18.3771 45.3366 18.3357 45.2293 18.3214C45.1221 18.3071 45.0129 18.3204 44.9122 18.3599C44.8114 18.3994 44.7222 18.4639 44.6531 18.5474C44.5928 18.6215 44.5499 18.7083 44.5274 18.8013C44.505 18.8942 44.5037 18.9911 44.5236 19.0846C44.0832 18.7341 43.623 18.4093 43.1452 18.112C43.2391 18.099 43.3288 18.0648 43.4075 18.0118C43.4863 17.9589 43.5519 17.8887 43.5996 17.8065C43.6848 17.6583 43.7077 17.4822 43.6635 17.317C43.6192 17.1518 43.5113 17.011 43.3635 16.9255C43.2157 16.8401 43.0402 16.8171 42.8755 16.8615C42.7107 16.9059 42.5703 17.0141 42.4852 17.1623C42.4393 17.2443 42.4121 17.3354 42.4055 17.4292C42.3989 17.523 42.4131 17.617 42.4471 17.7046C41.9538 17.4394 41.4452 17.2039 40.924 16.9994C41.0114 16.9669 41.0908 16.916 41.1569 16.8501C41.223 16.7842 41.2743 16.7049 41.3073 16.6175C41.3456 16.5155 41.3575 16.4054 41.342 16.2976C41.3266 16.1897 41.2842 16.0875 41.2188 16.0005C41.1534 15.9135 41.0672 15.8444 40.9681 15.7998C40.869 15.7551 40.7602 15.7363 40.6519 15.7451C40.5436 15.7538 40.4393 15.7899 40.3486 15.8499C40.2579 15.91 40.1839 15.992 40.1333 16.0884C40.0827 16.1849 40.0572 16.2926 40.0592 16.4015C40.0612 16.5105 40.0906 16.6172 40.1447 16.7117C39.6218 16.5373 39.0896 16.3928 38.5505 16.2788C38.6638 16.2113 38.7538 16.1105 38.8084 15.9901C38.8629 15.8697 38.8792 15.7354 38.8553 15.6053C38.8314 15.4753 38.7682 15.3557 38.6744 15.2627C38.5806 15.1698 38.4607 15.1079 38.3307 15.0855C38.2008 15.063 38.0671 15.081 37.9477 15.1371C37.8283 15.1933 37.7289 15.2847 37.6629 15.3993C37.597 15.5138 37.5676 15.6458 37.5788 15.7776C37.59 15.9094 37.6411 16.0345 37.7254 16.1362C37.1786 16.0573 36.6277 16.0105 36.0754 15.9962C36.1769 15.911 36.2499 15.7965 36.2843 15.6683C36.3187 15.54 36.3129 15.4043 36.2677 15.2795C36.2225 15.1546 36.1401 15.0468 36.0316 14.9706C35.9232 14.8944 35.794 14.8535 35.6616 14.8535C35.5292 14.8535 35.4 14.8944 35.2916 14.9706C35.1832 15.0468 35.1008 15.1546 35.0556 15.2795C35.0104 15.4043 35.0046 15.54 35.039 15.6683C35.0734 15.7965 35.1463 15.911 35.2478 15.9962C34.6956 16.0105 34.1446 16.0573 33.5978 16.1362C33.6558 16.0662 33.698 15.9845 33.7216 15.8966C33.7453 15.8087 33.7498 15.7168 33.7349 15.627C33.7202 15.5434 33.6893 15.4636 33.6438 15.392C33.5984 15.3204 33.5393 15.2584 33.47 15.2097C33.4007 15.161 33.3225 15.1265 33.2399 15.1081C33.1573 15.0897 33.0719 15.0878 32.9886 15.1025C32.9052 15.1172 32.8256 15.1483 32.7542 15.1938C32.6828 15.2394 32.6211 15.2987 32.5725 15.3682C32.524 15.4377 32.4895 15.5161 32.4712 15.599C32.4528 15.6818 32.451 15.7675 32.4656 15.8511C32.4816 15.9419 32.5171 16.0281 32.5697 16.1038C32.6223 16.1794 32.6908 16.2426 32.7702 16.289C32.2311 16.4027 31.6988 16.5472 31.176 16.7219C31.2408 16.607 31.2689 16.475 31.2565 16.3437C31.2441 16.2124 31.1918 16.088 31.1066 15.9875C31.0215 15.8869 30.9076 15.815 30.7804 15.7815C30.6531 15.748 30.5187 15.7544 30.3953 15.8C30.2719 15.8456 30.1653 15.9281 30.0902 16.0363C30.015 16.1446 29.9747 16.2734 29.9749 16.4053C29.975 16.5372 30.0156 16.6659 30.091 16.774C30.1665 16.8821 30.2732 16.9643 30.3967 17.0096C29.876 17.2143 29.3674 17.4489 28.8736 17.7123C28.9075 17.6251 28.9217 17.5315 28.9151 17.4381C28.9086 17.3447 28.8814 17.254 28.8355 17.1725C28.7504 17.0243 28.61 16.9161 28.4453 16.8717C28.2805 16.8273 28.105 16.8503 27.9572 16.9357C27.8094 17.0211 27.7015 17.1619 27.6572 17.3272C27.613 17.4924 27.6359 17.6685 27.7211 17.8167C27.7685 17.8985 27.8338 17.9686 27.9121 18.0215C27.9903 18.0744 28.0795 18.1088 28.173 18.1222C27.6952 18.4195 27.235 18.7443 26.7945 19.0948C26.8156 19.0013 26.8148 18.9042 26.7924 18.811C26.7699 18.7179 26.7264 18.6311 26.6651 18.5576C26.5553 18.4266 26.3982 18.3447 26.2283 18.3299C26.0583 18.3151 25.8895 18.3686 25.7588 18.4787C25.6282 18.5887 25.5465 18.7463 25.5318 18.9168C25.517 19.0873 25.5704 19.2566 25.6801 19.3876C25.7426 19.4606 25.8207 19.5185 25.9086 19.5568C25.9966 19.5952 26.092 19.6131 26.1878 19.6091C25.7662 19.9841 25.3669 20.3837 24.9922 20.8058C24.9968 20.7099 24.9796 20.6141 24.9417 20.5259C24.9039 20.4376 24.8465 20.3592 24.7739 20.2966C24.642 20.195 24.4762 20.1484 24.3109 20.1666C24.1456 20.1848 23.9937 20.2663 23.8869 20.3941C23.7801 20.5219 23.7267 20.6861 23.7378 20.8525C23.7488 21.0189 23.8236 21.1746 23.9463 21.287C24.0201 21.3477 24.1066 21.3907 24.1995 21.4128C24.2923 21.4348 24.3889 21.4354 24.482 21.4143C24.133 21.8565 23.8093 22.3181 23.5122 22.7969C23.4984 22.7033 23.4638 22.614 23.4111 22.5356C23.3584 22.4572 23.2889 22.3916 23.2076 22.3436C23.1344 22.3014 23.0537 22.2739 22.9699 22.2629C22.8862 22.2519 22.8011 22.2576 22.7195 22.2796C22.638 22.3016 22.5616 22.3395 22.4946 22.3911C22.4276 22.4427 22.3715 22.507 22.3293 22.5804C22.2871 22.6538 22.2598 22.7348 22.2488 22.8188C22.2379 22.9028 22.2435 22.9881 22.2654 23.0699C22.2873 23.1518 22.3251 23.2284 22.3766 23.2956C22.428 23.3628 22.4922 23.4191 22.5654 23.4614C22.6466 23.5074 22.7371 23.5346 22.8302 23.5412C22.9232 23.5478 23.0166 23.5336 23.1035 23.4996C22.8406 23.9907 22.6058 24.4965 22.4004 25.0145C22.3551 24.8898 22.2728 24.7821 22.1644 24.706C22.0561 24.6299 21.927 24.589 21.7947 24.5889C21.6624 24.5889 21.5333 24.6296 21.4249 24.7057C21.3165 24.7817 21.234 24.8894 21.1887 25.014C21.1434 25.1386 21.1374 25.2743 21.1715 25.4025C21.2056 25.5306 21.2782 25.6452 21.3794 25.7306C21.4807 25.816 21.6057 25.8681 21.7374 25.8798C21.8692 25.8916 22.0014 25.8623 22.116 25.7962C21.9411 26.3202 21.797 26.8541 21.6845 27.3951C21.6172 27.2814 21.5167 27.1911 21.3966 27.1365C21.2766 27.0818 21.1427 27.0654 21.013 27.0894C20.8833 27.1134 20.7641 27.1767 20.6714 27.2708C20.5788 27.3649 20.5171 27.4852 20.4947 27.6155C20.4723 27.7459 20.4903 27.8799 20.5462 27.9997C20.6022 28.1195 20.6934 28.2191 20.8076 28.2853C20.9217 28.3515 21.0534 28.3809 21.1848 28.3697C21.3162 28.3585 21.4409 28.3072 21.5423 28.2226C21.464 28.7711 21.4165 29.3237 21.4002 29.8776C21.3406 29.8059 21.2661 29.7482 21.1819 29.7086C21.0977 29.669 21.0058 29.6485 20.9128 29.6484C20.7425 29.6484 20.5791 29.7163 20.4586 29.8371C20.3382 29.9579 20.2705 30.1217 20.2705 30.2926C20.2705 30.4634 20.3382 30.6273 20.4586 30.7481C20.5791 30.8689 20.7425 30.9368 20.9128 30.9368C21.0058 30.9367 21.0977 30.9162 21.1819 30.8766C21.2661 30.837 21.3406 30.7793 21.4002 30.7076C21.4002 30.9622 21.423 31.2168 21.4433 31.4867C21.4018 31.5026 21.3668 31.5319 21.3437 31.5699C21.3205 31.608 21.3107 31.6527 21.3156 31.697C21.3206 31.7412 21.34 31.7826 21.3709 31.8146C21.4019 31.8466 21.4425 31.8674 21.4865 31.8737C21.4865 31.9781 21.5068 32.085 21.522 32.192V32.3498C21.4512 32.2938 21.3693 32.2534 21.2818 32.2315C21.1943 32.2096 21.1031 32.2065 21.0143 32.2225C20.8464 32.253 20.6972 32.3487 20.5993 32.4889C20.5013 32.6291 20.4626 32.8024 20.4914 32.9711C20.5021 33.0227 20.5183 33.0731 20.5396 33.1213H13.777V33.5822H13.8227C13.836 33.5828 13.8491 33.5861 13.8612 33.5918C13.8732 33.5976 13.8841 33.6056 13.893 33.6155C13.902 33.6255 13.9089 33.6371 13.9134 33.6497C13.9179 33.6623 13.9198 33.6757 13.9191 33.6891C13.9198 33.7025 13.9179 33.7159 13.9134 33.7285C13.9089 33.7411 13.902 33.7527 13.893 33.7626C13.8841 33.7726 13.8732 33.7806 13.8612 33.7864C13.8491 33.7921 13.836 33.7954 13.8227 33.796H13.777V34.0914H14.0562L13.9166 34.2951L13.777 34.5166V35.9398H13.9166V36.6171H14.1705C14.2135 36.6171 14.2549 36.6343 14.2853 36.6648C14.3158 36.6954 14.3329 36.7368 14.3329 36.7801C14.3329 36.8233 14.3158 36.8647 14.2853 36.8953C14.2549 36.9258 14.2135 36.943 14.1705 36.943H13.8151C13.8581 36.943 13.8995 36.9258 13.9299 36.8953C13.9604 36.8647 13.9775 36.8233 13.9775 36.7801C13.9775 36.7368 13.9604 36.6954 13.9299 36.6648C13.8995 36.6343 13.8581 36.6171 13.8151 36.6171H13.5612V35.95H13.4038V34.5268L13.7135 34.0812H11.3781L11.6878 34.5268V35.95H11.5304V36.6273H11.2765C11.2334 36.6273 11.1921 36.6445 11.1617 36.675C11.1312 36.7056 11.1141 36.747 11.1141 36.7902C11.1141 36.8335 11.1312 36.8749 11.1617 36.9055C11.1921 36.936 11.2334 36.9532 11.2765 36.9532H11.4872L11.6599 37.4751H11.4872L11.4695 37.4319V39.1327H11.2004V37.4344L11.1725 37.3606L11.0125 36.9557H3.79297V37.3504H3.38935L3.6432 37.8367V39.2854H10.5607C10.5607 39.1938 10.6571 39.1225 10.7765 39.1225H11.0481C10.9288 39.1225 10.8323 39.1938 10.8323 39.2854C10.8323 39.3771 10.9288 39.4458 11.0481 39.4458H11.3019L11.3603 39.7004H11.2385L11.208 39.5731H3.76251V39.7004H2.83594L3.12533 40.062C3.12202 40.1324 3.14483 40.2016 3.18937 40.2561C3.23391 40.3107 3.29701 40.3467 3.3665 40.3573C3.35103 40.3887 3.34291 40.4231 3.34276 40.458C3.3426 40.493 3.35041 40.5275 3.3656 40.559C3.38079 40.5904 3.40294 40.618 3.43038 40.6395C3.45781 40.661 3.4898 40.676 3.52388 40.6832C3.52388 40.6832 3.47819 41.0677 3.77774 41.0677V48.706H5.99895V41.0677H6.19442V40.0493H6.44827V41.0677H6.30103V41.3758H6.4305V41.61H6.60058V48.7111H10.5201V41.6253H10.6901V41.3911H10.8196V41.083H10.5658V40.0645H10.8196V41.083H10.8704V48.3496H10.8018V48.538H10.6444V48.7264H14.7746C14.7746 48.3496 14.5639 48.3496 14.5639 48.3496V44.7341C14.767 44.7341 14.7746 44.5813 14.7746 44.4006H14.2085V44.0416H14.4624C14.6046 40.7494 17.4604 40.2861 17.4604 40.2861C17.4604 40.2861 20.3188 40.7494 20.4609 44.0416H20.7148V44.4006H20.1487C20.1487 44.5813 20.1487 44.7341 20.3594 44.7341V48.3496C20.3594 48.3496 20.1487 48.3496 20.1487 48.7264H24.2738V48.538H24.1164V48.3496H23.9946V48.1612H23.9742V41.083H24.091V40.3624C24.1704 40.401 24.2568 40.4226 24.3449 40.4261V41.083H24.091V41.3911H24.2205V41.6253H24.3906V48.7264H26.792C26.8137 48.7566 26.8425 48.7811 26.8758 48.7977C26.9244 48.8213 26.9797 48.8271 27.0321 48.8141C27.0845 48.801 27.1307 48.77 27.1626 48.7264H28.3101V46.3203L28.8482 45.1848V48.7264H31.1329V44.5304C31.1624 44.4874 31.187 44.4413 31.2065 44.3929C31.2375 44.3052 31.2492 44.2117 31.2409 44.119C31.2326 44.0263 31.2044 43.9365 31.1583 43.8557C31.3461 43.9168 31.5365 43.9728 31.7294 44.0288L31.6203 46.6946H31.2979V48.8308H65.5325V49.0065H66.3422V47.1453H69.6068V49.0065H70.414V41.4369H70.5714V41.223H70.414V40.999L70.5714 40.7876L70.6577 40.5738H70.4039V38.3688L70.5613 38.155H69.7642L69.853 37.9411H70.6603V37.7298H70.4064L70.414 34.5497ZM10.4084 38.9493H6.16902V38.1142H10.4084V38.9493ZM4.24483 41.083H3.99098V40.0645H4.24483V41.083ZM4.97593 41.083H4.72208V40.0645H4.97593V41.083ZM5.70701 41.083H5.45316V40.0645H5.70701V41.083ZM9.89558 43.1199C9.95507 43.2382 10.0035 43.3618 10.0403 43.489H9.5808V43.1199H9.89558ZM9.5808 43.0664V42.6972H9.60111C9.70122 42.8088 9.78654 42.9329 9.85497 43.0664H9.5808ZM10.058 43.5425C10.0906 43.6638 10.1152 43.7872 10.1317 43.9117H9.5808V43.5425H10.058ZM7.42051 44.3904H6.93566C6.93591 44.2483 6.94438 44.1063 6.96104 43.9652H7.42051V44.3904ZM7.42051 43.9117H6.96866C6.98511 43.7872 7.0097 43.6638 7.04228 43.5425H7.42051V43.9117ZM7.42051 43.489H7.06259C7.10016 43.3617 7.14945 43.2381 7.20983 43.1199H7.42306L7.42051 43.489ZM7.42051 43.0664H7.23521C7.28894 42.9687 7.35093 42.8759 7.42051 42.7889V43.0664ZM7.84192 44.3904H7.47637V43.9703H7.84192V44.3904ZM7.84192 43.9117H7.47637V43.5425H7.84192V43.9117ZM7.84192 43.489H7.47637V43.1199H7.84192V43.489ZM7.84192 43.0664H7.47637V42.7252L7.50175 42.6972H7.84192V43.0664ZM7.84192 42.6437H7.55506C7.64303 42.5589 7.73912 42.483 7.84192 42.4171V42.6437ZM8.26331 44.3904H7.89776V43.9703H8.26331V44.3904ZM8.26331 43.9117H7.89776V43.5425H8.26331V43.9117ZM8.26331 43.489H7.89776V43.1199H8.26331V43.489ZM8.26331 43.0664H7.89776V42.6972H8.26331V43.0664ZM8.26331 42.6437H7.89776V42.3891C8.01281 42.3219 8.13555 42.2689 8.26331 42.2313V42.6437ZM8.68471 44.3904H8.31662V43.9703H8.68471V44.3904ZM8.68471 43.9117H8.31662V43.5425H8.68471V43.9117ZM8.68471 43.489H8.31662V43.1199H8.68471V43.489ZM8.68471 43.0664H8.31662V42.6972H8.68471V43.0664ZM8.68471 42.6437H8.31662V42.2135C8.39321 42.1929 8.4713 42.1784 8.55016 42.1702C8.55016 42.1702 8.60348 42.1702 8.68471 42.1905V42.6437ZM9.1061 44.3904H8.73801V43.9703H9.1061V44.3904ZM9.1061 43.9117H8.73801V43.5425H9.1061V43.9117ZM9.1061 43.489H8.73801V43.1199H9.1061V43.489ZM9.1061 43.0664H8.73801V42.6972H9.1061V43.0664ZM9.1061 42.6437H8.73801V42.2135C8.86531 42.2435 8.9888 42.2879 9.1061 42.3458V42.6437ZM9.5275 44.3904H9.15941V43.9703H9.5275V44.3904ZM9.5275 43.9117H9.15941V43.5425H9.5275V43.9117ZM9.5275 43.489H9.15941V43.1199H9.5275V43.489ZM9.5275 43.0664H9.15941V42.6972H9.5275V43.0664ZM9.5275 42.6437H9.15941V42.3611C9.29298 42.429 9.4168 42.5146 9.5275 42.6157V42.6437ZM9.5808 44.3904V43.9703H10.1393C10.1559 44.1114 10.1644 44.2534 10.1647 44.3955L9.5808 44.3904ZM9.83465 40.062H10.0885V41.0804H9.83465V40.062ZM9.10103 40.062H9.35489V41.0804H9.10103V40.062ZM8.36994 40.062H8.62379V41.0804H8.36994V40.062ZM7.63884 40.062H7.89269V41.0804H7.63884V40.062ZM6.90774 40.062H7.1616V41.0804H6.90774V40.062ZM13.5917 36.9379H13.7973L13.5917 37.4599H13.4089L13.5917 36.9379ZM13.4927 39.4382H13.6196L13.5181 39.9627H13.4089L13.4927 39.4382ZM12.6677 36.9379H12.8733L12.8174 37.4599H12.6473L12.6677 36.9379ZM12.6017 39.4382V39.9627H12.4849V39.4382H12.6017ZM12.4113 36.9379L12.4316 37.4599H12.2589L12.2031 36.9379H12.4113ZM11.5837 39.4382L11.6725 39.9627H11.5583L11.4568 39.4382H11.5837ZM11.3781 39.8456L11.4085 39.978H11.3781V39.8456ZM11.8553 46.9492H11.406V40.6985H11.8553V46.9492ZM11.8096 39.978L11.7335 39.4535H11.8604L11.9239 39.978H11.8096ZM11.8629 37.4751L11.7335 36.9532H11.9391L12.0381 37.4751H11.8629ZM12.1828 39.4535H12.3097L12.33 39.978H12.2158L12.1828 39.4535ZM12.7565 46.9492H12.3047V40.6985H12.7565V46.9492ZM12.8454 39.978H12.7311L12.7514 39.4535H12.8783L12.8454 39.978ZM13.122 36.9532H13.3277L13.1982 37.4751H13.0256L13.122 36.9532ZM13.2007 39.4535H13.3277L13.2541 39.978H13.1551L13.2007 39.4535ZM13.6628 46.9492H13.2109V40.6985H13.6628V46.9492ZM13.8963 39.4764L13.8557 39.6521L13.777 39.978H13.6628L13.777 39.4535H13.9039L13.8963 39.4764ZM42.8076 44.8232C42.8447 44.7368 42.899 44.6588 42.967 44.594C43.0351 44.5293 43.1156 44.479 43.2036 44.4464C43.3424 44.3727 43.4748 44.2875 43.5996 44.1918C43.7232 44.2878 43.8549 44.373 43.9931 44.4464C44.1936 44.5457 44.5008 44.6577 44.5008 45.4368V46.7099H43.8712V45.9944C43.8715 45.9584 43.8648 45.9227 43.8513 45.8894C43.8378 45.856 43.8178 45.8257 43.7926 45.8001C43.7673 45.7746 43.7372 45.7543 43.7041 45.7404C43.671 45.7266 43.6355 45.7194 43.5996 45.7194C43.5377 45.7222 43.4787 45.7462 43.4325 45.7875C43.3862 45.8287 43.3556 45.8848 43.3457 45.946L42.8076 44.8232ZM44.8232 39.922H44.7952V39.3771C44.7848 39.2455 44.8258 39.1149 44.9095 39.013C44.9537 38.9542 44.9919 38.891 45.0237 38.8246V38.514H45.2471L45.5644 38.7686H45.275V39.4586C45.1405 39.6164 44.9806 39.7666 44.8257 39.9143L44.8232 39.922ZM44.4881 42.3204V43.5934H43.8712V42.8856C43.8712 42.8131 43.8427 42.7436 43.7918 42.6921C43.7409 42.6406 43.6719 42.6113 43.5996 42.6106C43.557 42.6123 43.5153 42.6236 43.4777 42.6437C43.3833 42.5536 43.2638 42.4941 43.135 42.4732C43.5525 42.211 43.9566 41.928 44.3459 41.6253C44.4534 41.8378 44.5033 42.0748 44.4906 42.3127L44.4881 42.3204ZM36.974 37.0805H37.1238V37.2104C37.1384 37.2373 37.1554 37.2629 37.1746 37.2867C37.1928 37.307 37.2066 37.3308 37.2154 37.3566C37.2241 37.3824 37.2275 37.4098 37.2254 37.437V37.8596H37.1238V37.9309L36.974 37.0805ZM37.3066 37.8596V37.437C37.305 37.4085 37.3101 37.38 37.3216 37.3539C37.3331 37.3278 37.3506 37.3048 37.3726 37.2867C37.3726 37.2692 37.3795 37.2523 37.3919 37.2399C37.4043 37.2275 37.4211 37.2205 37.4386 37.2205C37.4561 37.2205 37.4729 37.2275 37.4853 37.2399C37.4976 37.2523 37.5046 37.2692 37.5046 37.2867C37.527 37.3045 37.5447 37.3275 37.5562 37.3536C37.5677 37.3798 37.5726 37.4084 37.5706 37.437V37.8596H37.3066ZM48.9483 30.7305C48.9427 30.6803 48.9189 30.6339 48.8815 30.6001C48.844 30.5663 48.7955 30.5475 48.7452 30.5472C48.773 30.5471 48.8005 30.5523 48.8264 30.5625V30.4097H48.9483C48.9483 30.509 48.9483 30.6159 48.9483 30.7305ZM48.8975 31.5325L48.8163 31.446C48.8528 31.4358 48.8867 31.4175 48.9153 31.3925C48.8975 31.4332 48.8924 31.4791 48.8873 31.5249L48.8975 31.5325ZM48.6614 30.4097V30.565C48.624 30.5808 48.5922 30.6074 48.5701 30.6414C48.5479 30.6754 48.5364 30.7153 48.537 30.756C48.5368 30.7936 48.5469 30.8306 48.5661 30.8629C48.5853 30.8952 48.613 30.9216 48.6462 30.9393C48.5789 30.9427 48.5156 30.9727 48.4704 31.0229C48.4252 31.073 48.4016 31.1391 48.405 31.2066C48.4084 31.2742 48.4384 31.3376 48.4883 31.3829C48.5383 31.4283 48.6042 31.4519 48.6716 31.4485C48.3729 31.767 48.0401 32.0514 47.679 32.2964L43.8154 31.6115C43.8788 31.2147 43.9153 30.814 43.9245 30.4123L48.6614 30.4097ZM47.4099 32.4848C46.8204 32.8747 46.2823 33.3375 45.8081 33.8622L43.4625 33.0067C43.597 32.6273 43.7031 32.2384 43.7798 31.8432L47.4099 32.4848ZM45.0237 35.5681L42.866 34.318C43.0622 33.9672 43.2319 33.602 43.3737 33.2257L45.6482 34.0405C45.5619 34.1576 45.4756 34.2772 45.3943 34.4045C45.1658 34.7505 45.0375 35.1533 45.0237 35.5681ZM43.0589 39.372C43.0575 39.3542 43.0575 39.3363 43.0589 39.3185L43.5666 39.9169H43.0589V39.372ZM43.163 39.0665C43.1833 39.0435 43.2036 39.0257 43.2214 39.0079C43.2172 38.9845 43.2182 38.9604 43.2243 38.9373C43.2304 38.9143 43.2414 38.8929 43.2567 38.8746C43.2719 38.8564 43.291 38.8417 43.3125 38.8316C43.3341 38.8215 43.3575 38.8163 43.3813 38.8163C43.405 38.8163 43.4285 38.8215 43.45 38.8316C43.4715 38.8417 43.4906 38.8564 43.5059 38.8746C43.5211 38.8929 43.5322 38.9143 43.5383 38.9373C43.5444 38.9604 43.5454 38.9845 43.5412 39.0079C43.5959 39.0506 43.6393 39.1062 43.6677 39.1697C43.696 39.2331 43.7083 39.3026 43.7037 39.372V39.7081L43.163 39.0665ZM44.5642 39.372V39.9169H43.922V39.372C43.9175 39.3029 43.9296 39.2337 43.9575 39.1703C43.9853 39.1069 44.028 39.0512 44.0819 39.0079C44.1434 38.9519 44.198 38.8886 44.2444 38.8195C44.2892 38.8891 44.343 38.9524 44.4043 39.0079C44.4578 39.051 44.5003 39.1062 44.5281 39.1692C44.556 39.2321 44.5683 39.3008 44.5642 39.3695V39.372ZM43.2696 37.1823C42.9117 37.3606 42.5385 37.5235 42.5385 38.2746H42.5004L41.0535 36.5433C41.3569 36.2797 41.6411 35.9947 41.9039 35.6903L43.4904 37.027C43.4237 37.0873 43.3494 37.1386 43.2696 37.1798V37.1823ZM41.8785 35.3593L36.776 31.0666L42.5385 34.4045C42.3418 34.7376 42.1212 35.0559 41.8785 35.3568V35.3593ZM36.8953 30.8578L43.1503 33.1493C43.0127 33.5126 42.8498 33.8656 42.6629 34.2059L36.8953 30.8578ZM43.5361 31.7948C43.4624 32.1761 43.3606 32.5514 43.2315 32.9176L36.974 30.6261L43.5361 31.7948ZM37.0172 30.4021H43.6783C43.672 30.7903 43.6373 31.1775 43.5742 31.5606L37.0172 30.4021ZM37.0172 30.1627L43.5742 29.0043C43.6373 29.3873 43.672 29.7745 43.6783 30.1627H37.0172ZM36.9766 29.931L43.234 27.6395C43.3628 28.0058 43.4646 28.3811 43.5387 28.7624L36.9766 29.931ZM36.8979 29.707L42.6654 26.3665C42.8524 26.7068 43.0152 27.0599 43.1528 27.4231L36.8979 29.707ZM36.7786 29.5008L41.881 25.208C42.1239 25.5098 42.3445 25.8289 42.541 26.1628L36.7786 29.5008ZM41.7236 35.535C41.471 35.83 41.1969 36.1057 40.9037 36.36L36.6237 31.2397L41.7236 35.535ZM40.726 36.5153C40.4247 36.7595 40.1056 36.9807 39.7715 37.1773L36.5095 31.5096L36.4714 31.4281L40.726 36.5153ZM40.2716 39.4509V39.1072C40.275 39.1076 40.2785 39.1072 40.2818 39.1061C40.285 39.105 40.288 39.1031 40.2904 39.1007C40.2929 39.0982 40.2947 39.0952 40.2959 39.0919C40.297 39.0887 40.2974 39.0852 40.297 39.0817C40.297 39.0785 40.2963 39.0753 40.295 39.0723C40.2937 39.0694 40.2918 39.0667 40.2894 39.0646C40.287 39.0624 40.2842 39.0608 40.2811 39.0598C40.278 39.0588 40.2748 39.0585 40.2716 39.0588C40.2759 39.0237 40.2675 38.9882 40.248 38.9588C40.2284 38.9293 40.199 38.9079 40.165 38.8984C40.1304 38.8777 40.1022 38.8477 40.0837 38.8119C40.0667 38.8479 40.0393 38.878 40.005 38.8984L39.4136 37.6457L39.6826 37.5057L41.1575 40.0645L40.6194 40.1918L40.2716 39.4509ZM39.3171 37.4344L37.7788 34.1907L39.5709 37.302L39.3171 37.4344ZM38.8906 37.6407C38.7688 37.6967 38.6368 37.7425 38.5175 37.7909L38.2636 37.0729H38.3144C38.3326 37.0729 38.35 37.0656 38.3628 37.0527C38.3757 37.0398 38.3829 37.0224 38.3829 37.0041C38.3829 36.9857 38.3758 36.9679 38.363 36.9546C38.3502 36.9413 38.3328 36.9335 38.3144 36.9328H38.2128L37.0603 33.7858L38.8906 37.6407ZM37.8752 37.2791C37.8976 37.2969 37.9153 37.3198 37.9268 37.346C37.9383 37.3722 37.9432 37.4008 37.9412 37.4293V37.8596H37.6874V37.437C37.6858 37.4085 37.6909 37.38 37.7024 37.3539C37.7139 37.3278 37.7313 37.3048 37.7534 37.2867C37.7534 37.2692 37.7603 37.2523 37.7727 37.2399C37.7851 37.2275 37.8019 37.2205 37.8194 37.2205C37.8369 37.2205 37.8537 37.2275 37.866 37.2399C37.8784 37.2523 37.8854 37.2692 37.8854 37.2867L37.8752 37.2791ZM38.0326 37.8596V37.437C38.0287 37.3825 38.046 37.3287 38.0808 37.2867L38.2966 37.8825C38.2408 37.9029 38.1824 37.9182 38.124 37.936V37.8596H38.0326ZM38.2585 41.195H38.2865V41.2943H38.3652V41.195C38.3838 41.1944 38.4015 41.1867 38.4147 41.1734C38.4279 41.1602 38.4356 41.1424 38.4362 41.1237C38.4356 41.1053 38.4278 41.0878 38.4145 41.0749C38.4013 41.0621 38.3836 41.055 38.3652 41.055H38.2382L38.1214 38.2212H38.157V38.1677L38.223 38.1473V38.2212H38.2991V38.1142L38.3652 38.0939L39.9086 42.3458V42.8984C39.392 43.0748 38.8645 43.2177 38.3296 43.3261L38.2585 41.195ZM38.6038 38.02C38.7358 37.9716 38.8576 37.9207 38.9972 37.8622L39.9238 39.8201V40.6425L40.2741 40.5585L40.3807 40.7851L39.9238 40.892V41.6559L38.6038 38.02ZM40.3173 42.3127C40.3173 41.5311 40.4975 41.4191 40.6168 41.3198L41.1398 42.4222C40.8681 42.5444 40.5914 42.6616 40.3097 42.7685L40.3173 42.3127ZM40.7336 40.4388L41.2946 40.3064L41.4215 40.5279L40.8402 40.6654L40.7336 40.4388ZM42.0029 41.9818L41.8099 42.0861V41.195L42.0029 41.5311V41.9818ZM43.9728 41.307C43.5693 41.6112 43.1498 41.8934 42.7162 42.1523C42.7223 42.0369 42.7411 41.9225 42.772 41.8112C43.1003 41.6041 43.4194 41.3868 43.7291 41.1594C43.8077 41.2127 43.8891 41.262 43.9728 41.307ZM42.0029 40.4363V41.0575L41.8099 40.7214V40.4363L41.6652 40.4719L41.5383 40.2504L41.8099 40.1868V39.9143L41.4012 40.0111L39.8781 37.3835C40.2239 37.1793 40.554 36.9495 40.8656 36.696L42.3049 38.4172V38.5063H42.3786L42.607 38.7788V38.8169C42.6417 38.884 42.6834 38.9472 42.7314 39.0054C42.7759 39.0543 42.8099 39.1118 42.8313 39.1745C42.8527 39.2371 42.861 39.3035 42.8558 39.3695V39.9143H42.1679V38.6234C42.1746 38.6234 42.1811 38.6208 42.1858 38.616C42.1906 38.6112 42.1933 38.6047 42.1933 38.598C42.1933 38.5912 42.1906 38.5848 42.1858 38.58C42.1811 38.5752 42.1746 38.5725 42.1679 38.5725C42.171 38.5379 42.1622 38.5032 42.1427 38.4745C42.1233 38.4457 42.0945 38.4245 42.0612 38.4147C42.0612 38.3931 42.0527 38.3723 42.0374 38.3571C42.0222 38.3418 42.0016 38.3332 41.98 38.3332C41.9585 38.3332 41.9378 38.3418 41.9226 38.3571C41.9073 38.3723 41.8988 38.3931 41.8988 38.4147C41.8655 38.4245 41.8367 38.4457 41.8173 38.4745C41.7978 38.5032 41.789 38.5379 41.7922 38.5725C41.7854 38.5725 41.779 38.5752 41.7742 38.58C41.7695 38.5848 41.7668 38.5912 41.7668 38.598C41.7668 38.6047 41.7695 38.6112 41.7742 38.616C41.779 38.6208 41.7854 38.6234 41.7922 38.6234H41.8404V39.95L42.0156 39.9143V40.1817H43.8078L44.0185 40.4363H42.0029ZM44.1048 40.1817H44.5338C44.4525 40.2555 44.3713 40.3293 44.2799 40.4006L44.1048 40.1817ZM45.6279 37.8163V38.4987L45.1024 38.0582C45.0364 37.4853 44.7039 37.3351 44.384 37.1747C44.1471 37.0356 43.9557 36.8304 43.8331 36.584C43.784 36.6737 43.7271 36.7589 43.6631 36.8386L42.0689 35.4968C42.3208 35.1836 42.5498 34.8526 42.7543 34.5064L45.0389 35.8355C45.1029 36.2687 45.3061 36.6692 45.6177 36.9761C45.6177 36.9761 45.7091 36.8463 46.6331 36.7597L47.1028 37.0321C46.9936 37.2129 46.8819 37.3937 46.7677 37.5694C45.7396 37.6737 45.6177 37.8214 45.6177 37.8214L45.6279 37.8163ZM47.0647 36.7368L47.2931 36.7241L47.2322 36.8335L47.0647 36.7368ZM48.8417 30.9266C48.8669 30.9126 48.8892 30.8937 48.9071 30.871C48.9249 30.8482 48.9381 30.8221 48.9457 30.7942C48.9457 30.8604 48.9457 30.9266 48.9457 30.9928C48.9136 30.9628 48.8742 30.9418 48.8315 30.9317L48.8417 30.9266ZM48.9381 30.1627C48.947 30.1417 48.9522 30.1193 48.9533 30.0965C48.9533 30.0412 48.9314 29.9881 48.8924 29.9489C48.8533 29.9098 48.8004 29.8878 48.7452 29.8878C48.773 29.8877 48.8005 29.8929 48.8264 29.903V29.3684C48.8264 29.3684 48.8264 29.2818 48.7426 29.2818C48.6589 29.2818 48.6614 29.3684 48.6614 29.3684V29.9056C48.624 29.9213 48.5922 29.9479 48.5701 29.982C48.5479 30.016 48.5364 30.0559 48.537 30.0965C48.5332 30.1184 48.5332 30.1408 48.537 30.1627H43.9144C43.9051 29.761 43.8687 29.3603 43.8052 28.9635L48.7655 28.0851C48.8796 28.7719 48.9399 29.4665 48.9457 30.1627H48.9381ZM43.7798 28.7293C43.7031 28.334 43.597 27.9451 43.4625 27.5657L48.1867 25.8369C48.4186 26.4939 48.5985 27.1681 48.7249 27.8534L43.7798 28.7293ZM43.3635 27.3417C43.2218 26.9653 43.0521 26.6002 42.8558 26.2494L47.2119 23.7262C47.5557 24.3306 47.8511 24.9615 48.0953 25.6128L43.3635 27.3417ZM42.7365 26.0457C42.5321 25.6994 42.303 25.3684 42.0511 25.0552L45.902 21.8192C46.343 22.357 46.7419 22.9281 47.0951 23.5276L42.7365 26.0457ZM41.9039 24.8745C41.6411 24.5702 41.3569 24.2851 41.0535 24.0215L44.2875 20.1565C44.8148 20.609 45.3062 21.1019 45.7573 21.6307L41.9039 24.8745ZM41.7211 25.0272L36.6237 29.3174L40.9011 24.2048C41.1951 24.4584 41.4692 24.7342 41.7211 25.0298V25.0272ZM36.4435 29.1647L39.769 23.385C40.1031 23.5815 40.4221 23.8028 40.7234 24.047L36.4435 29.1647ZM36.2379 29.045L38.5225 22.7714C38.8847 22.9094 39.2367 23.0727 39.576 23.2602L36.2379 29.045ZM36.0145 28.9635L37.172 22.3844C37.5522 22.4586 37.9263 22.5607 38.2915 22.6899L36.0145 28.9635ZM37.7661 36.4236C37.7083 36.3704 37.6602 36.3075 37.6239 36.2377C37.5746 36.3435 37.4951 36.4321 37.3954 36.4924C37.3011 36.5203 37.2193 36.5803 37.1642 36.662C37.1091 36.7438 37.084 36.8422 37.0933 36.9405H36.9537L36.0145 31.6064L37.7661 36.4236ZM38.5276 43.8073C38.5221 43.7966 38.5137 43.7876 38.5034 43.7813C38.4931 43.775 38.4813 43.7717 38.4692 43.7717H38.3601V43.5756C38.8906 43.4671 39.4145 43.3276 39.9289 43.1581V43.4356C39.467 43.5829 38.9975 43.7053 38.5225 43.8022L38.5276 43.8073ZM40.495 43.237L40.4036 42.9824C40.693 42.8729 40.9773 42.7532 41.2565 42.6259L41.3682 42.8653C41.0788 42.9977 40.7869 43.1199 40.4899 43.2319L40.495 43.237ZM41.2007 41.414C41.2758 41.502 41.3266 41.6082 41.3479 41.7221L41.2007 41.414ZM41.815 42.3586L42.0079 42.2567V42.5546C41.9419 42.5877 41.8785 42.6259 41.815 42.659V42.3586ZM42.0079 43.0919V43.1173V43.097V43.0919ZM44.615 40.4414L44.8917 40.1868H45.1456V39.95L45.2903 39.8048V40.174C45.1989 40.2631 45.11 40.3522 45.0161 40.4286L44.615 40.4414ZM45.1379 40.9684L45.2826 40.8284V40.9888C45.2345 40.9838 45.186 40.9838 45.1379 40.9888V40.9684ZM47.0723 37.5643C47.1535 37.4344 47.2348 37.3097 47.3135 37.1696L47.5419 37.2995C47.4937 37.3835 47.4404 37.465 47.3921 37.5541L47.0723 37.5643ZM47.6612 37.0958L47.4328 36.9634C47.4785 36.8845 47.5191 36.803 47.5622 36.7215H47.8668C47.7932 36.8412 47.7272 36.9634 47.6561 37.0958H47.6612ZM49.1082 31.749C49.1575 31.3059 49.1837 30.8606 49.1869 30.4148H49.4407C49.4352 30.9298 49.4013 31.444 49.3392 31.9552C49.2605 31.8763 49.1818 31.8075 49.1031 31.749H49.1082ZM49.4509 30.1755H49.197C49.1917 29.4656 49.1306 28.7573 49.0143 28.0571L49.2681 28.0113C49.3855 28.7226 49.4483 29.4418 49.456 30.1627L49.4509 30.1755ZM49.2199 27.7796L48.966 27.8229C48.8384 27.1243 48.655 26.4372 48.4177 25.7682L48.6716 25.679C48.9071 26.3596 49.0887 27.0577 49.2148 27.7668L49.2199 27.7796ZM48.5802 25.455L48.3263 25.5467C48.077 24.8756 47.7757 24.2252 47.4251 23.6014L47.6536 23.4716C48.0119 24.1032 48.32 24.7621 48.5751 25.4423L48.5802 25.455ZM47.5419 23.2832L47.3135 23.4156C46.9541 22.8033 46.5475 22.2202 46.0975 21.6715L46.3006 21.5034C46.7582 22.059 47.1716 22.6498 47.5368 23.2704L47.5419 23.2832ZM44.6099 19.7823C45.1558 20.2517 45.665 20.7624 46.133 21.3099L45.93 21.4805C45.4708 20.9411 44.9701 20.4388 44.4322 19.9783L44.6099 19.7823ZM42.6553 18.3819C43.2794 18.7492 43.8736 19.1655 44.4322 19.627L44.2621 19.8306C43.717 19.3779 43.1364 18.97 42.5258 18.6111L42.6553 18.3819ZM44.1098 20.0114L40.8758 23.8688C40.5641 23.6153 40.234 23.3855 39.8883 23.1813L42.4065 18.8071C43.0041 19.1614 43.5736 19.5615 44.1098 20.0038V20.0114ZM40.4899 17.3406C41.1664 17.5923 41.8218 17.898 42.4496 18.2546L42.3176 18.4838C41.7025 18.1325 41.0608 17.8303 40.3985 17.5799L40.4899 17.3406ZM42.2009 18.6976L39.6852 23.0667C39.3354 22.8699 38.9714 22.6997 38.5961 22.5575L40.3173 17.8039C40.9675 18.0489 41.5973 18.3452 42.2009 18.69V18.6976ZM38.1722 16.6989C38.884 16.8297 39.5843 17.017 40.2665 17.2591L40.1751 17.5137C39.5082 17.275 38.8231 17.0911 38.1265 16.9637L38.1722 16.6989ZM40.0964 17.7301L38.3728 22.476C37.9941 22.3431 37.6064 22.2376 37.2127 22.1603L38.0859 17.1903C38.7689 17.3149 39.4411 17.4928 40.0964 17.7225V17.7301ZM35.7809 16.4571C36.5048 16.4627 37.2272 16.5257 37.9412 16.6455L37.8955 16.9001C37.1966 16.7833 36.4895 16.722 35.7809 16.7168V16.4571ZM35.7809 16.9663C36.4759 16.9721 37.1694 17.0325 37.8549 17.147L36.9791 22.1221C36.5828 22.0571 36.1824 22.0205 35.7809 22.0127V16.9663ZM35.7809 22.2494C36.1688 22.2578 36.5556 22.2936 36.9385 22.3564L35.7809 28.933V22.2494ZM35.7809 31.642L36.8979 38.0073C36.8832 38.0203 36.8741 38.0386 36.8725 38.0582C36.8732 38.0718 36.878 38.0848 36.8861 38.0957C36.8942 38.1066 36.9054 38.1148 36.9182 38.1193L36.9385 38.2288C36.5556 38.2916 36.1688 38.3273 35.7809 38.3357V31.642ZM35.7809 38.5623C36.1825 38.5557 36.583 38.5191 36.9791 38.4529L37.0832 39.0461L37.002 41.0524H36.8725C36.8543 41.0524 36.8369 41.0597 36.824 41.0726C36.8112 41.0855 36.804 41.1029 36.804 41.1212C36.8039 41.1396 36.8111 41.1574 36.8239 41.1707C36.8367 41.184 36.8541 41.1918 36.8725 41.1925V41.2918H36.9486V41.1925H37.007L36.9106 43.5502C36.5425 43.5858 36.1693 43.6062 35.7911 43.6087L35.7809 38.5623ZM35.7809 43.8455C36.1084 43.8455 36.4333 43.8277 36.7532 43.8022C36.744 43.8129 36.7387 43.8263 36.738 43.8404C36.7379 43.8589 36.7451 43.8766 36.7579 43.8899C36.7707 43.9032 36.7881 43.911 36.8065 43.9117V44.011H36.8801V44.0568C36.5171 44.0899 36.1516 44.1078 35.7809 44.1103V43.8455ZM35.5448 16.4723V16.7269C34.8371 16.7323 34.1309 16.7936 33.4328 16.9103L33.3871 16.6556C34.1004 16.5377 34.8219 16.4764 35.5448 16.4723ZM24.8323 40.2402C24.8808 40.1929 24.9211 40.1379 24.9516 40.0773H25.0861V41.0957H24.8323V40.2402ZM30.8181 41.083L30.945 40.8156V41.083H30.8181ZM30.2139 40.0645V41.083H29.9601V40.4592L30.1809 40.0773L30.2139 40.0645ZM29.2214 41.083V40.0645H29.4752V40.7876L29.3128 41.0702L29.2214 41.083ZM27.0814 41.083L27.0281 41.0397V40.8029L27.0763 40.7443L27.2896 40.9124V41.083H27.0814ZM22.7126 37.0601C22.6705 37.0742 22.6297 37.0921 22.5907 37.1136C22.5622 37.1311 22.5351 37.1506 22.5095 37.1722V36.9532H22.7177L22.7126 37.0601ZM22.2049 32.7827L22.375 32.7547C22.3877 32.8234 22.4054 32.8947 22.4181 32.9634H22.2049V32.7827ZM23.2203 31.4587V31.3238C23.2203 31.0997 22.9969 30.7178 22.7811 30.4021H27.4114C27.4181 30.804 27.4546 31.2048 27.5206 31.6013L23.2203 32.3651V31.8712C23.2706 31.8655 23.317 31.8415 23.3507 31.8037C23.3845 31.7659 23.4031 31.7169 23.4031 31.6662C23.4031 31.6155 23.3845 31.5665 23.3507 31.5287C23.317 31.4909 23.2706 31.4669 23.2203 31.4612V31.4587ZM22.5552 32.2225V32.4619C22.5349 32.3397 22.5197 32.2073 22.5019 32.0952C22.5312 32.1282 22.5474 32.1707 22.5476 32.2149L22.5552 32.2225ZM22.8395 32.2225C22.8395 32.1232 22.8903 32.0443 22.9538 32.0443C23.0172 32.0443 23.0655 32.1232 23.0655 32.2225V32.3982L22.8395 32.4364V32.2225ZM22.8395 32.6783L23.0655 32.6375V32.9711H22.8395V32.6783ZM23.2685 33.7935C23.2828 33.7938 23.2969 33.7913 23.3101 33.7861C23.3233 33.7809 23.3354 33.773 23.3456 33.7631C23.3558 33.7531 23.3638 33.7412 23.3693 33.7281C23.3749 33.7149 23.3777 33.7008 23.3777 33.6865C23.3777 33.6723 23.3749 33.6582 23.3693 33.645C23.3638 33.6319 23.3558 33.62 23.3456 33.61C23.3354 33.6 23.3233 33.5922 23.3101 33.587C23.2969 33.5818 23.2828 33.5793 23.2685 33.5796H23.2203V32.6121L27.5561 31.8483C27.6332 32.2432 27.7384 32.632 27.8709 33.0118L23.2203 34.7101V34.5395L23.53 34.0939H22.9309C22.903 33.9972 22.8725 33.8979 22.8471 33.7986L23.2685 33.7935ZM32.0112 37.442L31.7574 37.3097L32.0417 36.8132L32.0163 37.4293L32.0112 37.442ZM30.8968 36.169L32.2397 34.565V35.0869H32.1052V35.2448H31.864C31.8398 35.2448 31.8165 35.2544 31.7994 35.2716C31.7822 35.2888 31.7726 35.3121 31.7726 35.3364C31.7726 35.3607 31.7822 35.384 31.7994 35.4012C31.8165 35.4184 31.8398 35.4281 31.864 35.4281V35.5605H31.9655V35.4281H32.0544V35.5605H32.0975L32.0671 36.3039L31.5594 37.1849C31.2573 37.0046 30.9673 36.8047 30.6912 36.5866H31.0593V36.169H30.8968ZM33.2856 34.7508V34.6541L33.5394 34.1983L33.2856 34.7508ZM33.1409 34.43L32.8134 35.0003V34.5242C32.8106 34.4866 32.8169 34.4488 32.832 34.4142C32.847 34.3796 32.8703 34.3492 32.8997 34.3256C32.9328 34.2956 32.9618 34.2614 32.986 34.2238C33.0113 34.2606 33.0402 34.2947 33.0723 34.3256C33.1034 34.3517 33.1277 34.3849 33.1434 34.4224L33.1409 34.43ZM32.5189 34.2314C32.5447 34.2686 32.5745 34.3027 32.6078 34.3333C32.6367 34.3572 32.6596 34.3877 32.6746 34.4222C32.6896 34.4567 32.6963 34.4943 32.6941 34.5319V35.0869H32.3463V34.5242C32.3435 34.48 32.3532 34.4359 32.3742 34.3969L32.4352 34.3256C32.468 34.2954 32.497 34.2612 32.5215 34.2238L32.5189 34.2314ZM29.4219 35.6954C29.5615 35.8584 29.7113 36.0162 29.8636 36.169H28.8482L29.4219 35.6954ZM28.4928 36.169H25.7487L28.5842 34.5268C28.7878 34.873 29.016 35.204 29.2671 35.5172L28.4928 36.169ZM28.7848 34.4096L34.5498 31.0717L29.4473 35.3644C29.205 35.0596 28.9845 34.738 28.7873 34.402L28.7848 34.4096ZM28.6629 34.2059C28.4759 33.8656 28.3131 33.5126 28.1755 33.1493L34.4304 30.8578L28.6629 34.2059ZM28.0943 32.9329C27.9652 32.5667 27.8633 32.1914 27.7897 31.8101L34.3492 30.649L28.0943 32.9329ZM28.4573 34.3307L25.274 36.1766H23.7509C23.5579 35.782 23.3802 35.3797 23.2254 34.9672L27.9572 33.2384C28.099 33.609 28.267 33.9689 28.4598 34.3154L28.4573 34.3307ZM23.9641 36.4338C24.0095 36.431 24.0541 36.4463 24.0884 36.4763C24.1226 36.5063 24.1436 36.5487 24.1469 36.5942H24.5505L24.1012 36.8488C24.0225 36.7113 23.9489 36.5687 23.8752 36.4287L23.9641 36.4338ZM24.3804 36.9685L25.0227 36.5942H27.9953L27.551 36.9685H24.3804ZM26.1777 38.1142L25.4161 38.7558C25.2435 38.5471 25.081 38.3332 24.9237 38.1142H26.1777ZM28.3659 36.5866H30.2419L29.9296 36.9608H27.9217L28.3659 36.5866ZM30.4526 36.7037C30.5617 36.7953 30.676 36.8768 30.7927 36.9583H30.2393L30.4526 36.7037ZM31.1786 37.2129C31.2522 37.2613 31.3233 37.3097 31.3994 37.3555H31.1786V37.2129ZM31.6406 37.5057C31.7294 37.5541 31.8208 37.5999 31.9122 37.6457L31.3334 38.8781V38.0506L31.6406 37.5057ZM33.0393 35.0767L33.1637 34.8603V35.0054L33.1307 35.0767H33.0393ZM33.4252 35.5554H33.4633V35.4663L33.4836 35.423H33.5521V35.5554H33.6181L33.4379 36.0493L33.4252 35.5554ZM33.6536 35.4179H33.674L33.6587 35.4612V35.423L33.6536 35.4179ZM33.7273 35.2728C33.7189 35.261 33.7078 35.2515 33.695 35.2448C33.6822 35.2382 33.668 35.2347 33.6536 35.2346H33.5775L34.268 33.7782L33.7273 35.2728ZM33.4734 33.8673C33.4861 33.772 33.4716 33.675 33.4316 33.5876C33.3917 33.5002 33.3278 33.4259 33.2475 33.3734L34.8772 31.4281L34.8391 31.5071L33.4734 33.8673ZM33.0342 33.2537C32.9271 33.1772 32.84 33.0759 32.7804 32.9584C32.7136 33.0915 32.6095 33.2021 32.4808 33.2766C32.3568 33.3138 32.2495 33.393 32.1773 33.5008C32.105 33.6085 32.0724 33.7381 32.0848 33.8673H31.8868C31.8624 33.868 31.8391 33.8782 31.822 33.8958C31.805 33.9134 31.7954 33.937 31.7954 33.9615C31.7954 33.9858 31.8051 34.0091 31.8222 34.0263C31.8394 34.0435 31.8626 34.0532 31.8868 34.0532H32.128V34.2212C32.142 34.2458 32.1572 34.2696 32.1737 34.2925L30.6125 36.1588H30.2139C29.9995 35.9615 29.7961 35.7524 29.6047 35.5325L34.7046 31.2397L33.0342 33.2537ZM28.8 26.1603C28.9983 25.8268 29.2197 25.5078 29.4625 25.2055L34.565 29.4982L28.8 26.1603ZM34.433 29.7121L28.178 27.4206C28.3156 27.0573 28.4785 26.7043 28.6654 26.3639L34.433 29.7121ZM34.3517 29.9361L27.7922 28.7751C27.8659 28.3938 27.9677 28.0185 28.0968 27.6523L34.3517 29.9361ZM34.3137 30.1678H27.65C27.6571 29.7796 27.6928 29.3924 27.7567 29.0093L34.3137 30.1678ZM34.3137 30.4072L27.7567 31.5656C27.6928 31.1826 27.6571 30.7954 27.65 30.4072H34.3137ZM23.2228 35.95V35.5859C23.3777 35.95 23.5503 36.3039 23.7305 36.6528C23.7027 36.6367 23.6713 36.6279 23.6392 36.6273H23.4158L23.3752 36.5433V35.95H23.2228ZM23.6442 36.9532C23.6858 36.954 23.7264 36.9402 23.7588 36.9142C23.7913 36.8881 23.8136 36.8515 23.8219 36.8106C23.8473 36.859 23.8727 36.9099 23.9006 36.9583L23.6722 37.0907C23.6468 37.0449 23.6239 36.9965 23.5985 36.9532H23.6442ZM23.7915 37.2944L23.8397 37.2664L23.8118 37.3326C23.8169 37.3198 23.7966 37.3071 23.7915 37.2944ZM24.9338 38.9493C24.8069 38.7915 24.68 38.6285 24.5632 38.4656V38.1142H24.6317C24.823 38.3875 25.0235 38.6523 25.2334 38.9086L25.18 38.9519L24.9338 38.9493ZM25.571 38.9315L26.5458 38.1117H28.8051V38.2975L28.2567 38.9493H25.5938L25.571 38.9315ZM28.8051 38.6769V38.9595H28.5664L28.8051 38.6769ZM27.9724 39.3033L27.7186 39.5986H26.1675C26.0711 39.5018 25.9771 39.4026 25.8832 39.3033H27.9724ZM26.2868 40.4057V40.0798H26.3275L26.5483 40.2861V40.64C26.4595 40.5585 26.3706 40.4821 26.2868 40.4057ZM27.0179 40.0798H27.2718V40.1231L27.0408 40.4057L27.0179 40.3854V40.0798ZM28.0105 41.0983H27.8963L27.749 40.9888V40.0925H28.0029L28.0105 41.0983ZM27.2794 40.6247L27.2185 40.5763L27.2794 40.505V40.6247ZM28.2948 39.3083H30.3536L30.1835 39.6037H28.046L28.2948 39.3083ZM30.6277 39.3083H31.1354L30.9958 39.6037H30.4424L30.6277 39.3083ZM31.9833 38.6464L31.9579 39.2905H31.7878C31.7636 39.2905 31.7403 39.3002 31.7232 39.3174C31.7061 39.3346 31.6964 39.3579 31.6964 39.3822C31.6964 39.4065 31.7061 39.4298 31.7232 39.447C31.7403 39.4642 31.7636 39.4738 31.7878 39.4738H31.7751V39.6062H31.8741V39.4738H31.9503V39.7285H31.4781L31.9833 38.6464ZM33.5978 39.4738H33.6587V39.6062H33.7603V39.4738C33.7845 39.4738 33.8077 39.4642 33.8249 39.447C33.842 39.4298 33.8517 39.4065 33.8517 39.3822C33.8517 39.3579 33.842 39.3346 33.8249 39.3174C33.8077 39.3002 33.7845 39.2905 33.7603 39.2905H33.5927L33.5521 38.2925C33.7425 38.3434 33.9354 38.3892 34.1309 38.4274L33.6638 41.0728L33.5978 39.4738ZM33.5394 38.0404L33.4836 36.6859L35.324 31.614L34.169 38.1932C33.943 38.1371 33.7323 38.0862 33.5267 38.0251L33.5394 38.0404ZM35.1031 29.0628L31.7726 23.2781C32.1114 23.0896 32.4635 22.9262 32.8261 22.7892L35.1031 29.0628ZM33.0469 22.6976C33.413 22.5684 33.788 22.4663 34.169 22.392L35.324 28.9712L33.0469 22.6976ZM34.8975 29.1723L30.6176 24.0546C30.9184 23.811 31.2366 23.5898 31.5695 23.3926L34.8975 29.1723ZM34.7173 29.3251L29.6047 25.0298C29.858 24.7355 30.132 24.4598 30.4246 24.2048L34.7173 29.3251ZM29.4245 24.8745L25.571 21.6307C26.0214 21.1013 26.5129 20.6084 27.0408 20.1565L30.2749 24.0215C29.9708 24.2845 29.6866 24.5695 29.4245 24.8745ZM29.2696 25.0527C29.0169 25.3653 28.7878 25.6963 28.5842 26.0431L24.223 23.5174C24.5763 22.918 24.9752 22.3468 25.4161 21.809L29.2696 25.0527ZM28.4598 26.2468C28.2646 26.5982 28.0949 26.9632 27.9521 27.3391L23.2203 25.6103C23.4637 24.959 23.7582 24.3281 24.1012 23.7236L28.4598 26.2468ZM27.8785 27.5657C27.746 27.9455 27.6408 28.3344 27.5637 28.7293L22.6085 27.8534C22.7337 27.1679 22.9136 26.4935 23.1467 25.8369L27.8785 27.5657ZM27.5282 28.9635C27.4622 29.36 27.4257 29.7608 27.419 30.1627H22.6212C22.5121 30.0176 22.4232 29.9081 22.3953 29.8699C22.4128 29.2726 22.4705 28.6772 22.5679 28.0877L27.5282 28.9635ZM22.3344 32.5281L22.2049 32.551V32.2225C22.2051 32.1965 22.2111 32.1709 22.2225 32.1475C22.234 32.1241 22.2505 32.1037 22.2709 32.0876C22.2937 32.2276 22.2937 32.3753 22.3293 32.5128L22.3344 32.5281ZM22.6085 33.8011C22.6339 33.9004 22.6644 33.9997 22.6923 34.0965H22.4181C22.3902 33.9997 22.3623 33.9004 22.3369 33.8011H22.6085ZM22.2557 36.9685L22.2785 37.4904H22.1059L22.05 36.9685H22.2557ZM22.4486 39.4688V39.9932H22.3344V39.4688H22.4486ZM22.9741 36.9685H23.0553C23.0756 37.0067 23.0959 37.05 23.1162 37.0907C23.0629 37.0717 23.0075 37.0589 22.9512 37.0525L22.9741 36.9685ZM23.3396 39.4688H23.4665L23.365 39.9932H23.2508L23.3396 39.4688ZM23.4539 39.1454V38.0098C23.4923 37.9428 23.5189 37.8696 23.5325 37.7934C23.6112 37.9207 23.6975 38.048 23.7864 38.1677V39.1327L23.4539 39.1454ZM24.2154 39.1454C24.2505 39.1459 24.285 39.1537 24.3169 39.1683C24.2353 39.1738 24.1558 39.1963 24.0834 39.2345C24.0606 39.2054 24.0312 39.1822 23.9976 39.1667C23.9641 39.1512 23.9274 39.1439 23.8905 39.1454H24.2154ZM25.2308 39.3083H25.5837C25.6725 39.4076 25.7614 39.5069 25.8553 39.6037H25.4948C25.3958 39.4917 25.307 39.3873 25.2207 39.2931L25.2308 39.3083ZM25.5634 40.3675C25.6497 40.4541 25.7385 40.5356 25.8172 40.6221V41.1008H25.5634V40.3675ZM27.9597 43.9321H27.5053V43.5629H27.8684L27.8886 43.5807C27.9166 43.6938 27.937 43.8086 27.9496 43.9244L27.9597 43.9321ZM27.6653 43.0868H27.5053V42.8092C27.5661 42.8819 27.6197 42.9604 27.6653 43.0435V43.0868ZM27.6653 43.1402C27.6757 43.2764 27.7291 43.4057 27.8176 43.5094H27.5053V43.1402H27.6653ZM27.0839 43.9321V43.5629H27.452V43.9321H27.0839ZM27.452 43.9855V44.4107H27.0839V43.9703L27.452 43.9855ZM27.0839 43.5094V43.1402H27.452V43.5094H27.0839ZM27.0839 43.0868V42.7176H27.4266L27.452 42.7456V43.0868H27.0839ZM27.0839 42.6641V42.4426C27.188 42.5078 27.285 42.5838 27.3733 42.6692L27.0839 42.6641ZM26.6651 43.0868V42.7176H27.0306V43.0868H26.6651ZM27.0306 43.1402V43.5094H26.6651V43.1402H27.0306ZM26.6651 42.6641V42.2491C26.7928 42.2867 26.9156 42.3397 27.0306 42.407V42.6616L26.6651 42.6641ZM26.6651 43.5629H27.0306V43.9321H26.6651V43.5629ZM27.5053 44.4107V43.9703H27.9648C27.9836 44.1112 27.993 44.2533 27.9927 44.3955L27.5053 44.4107ZM28.3278 41.6788C28.4852 41.7806 28.6426 41.8799 28.8025 41.9767L28.6731 42.2033C28.5563 42.1345 28.4421 42.0632 28.3278 41.9919V41.6788ZM28.4954 41.5082V41.4038H28.6401V41.0957H28.4928V40.0773H28.7467V41.0957H28.8711V41.7348L28.4954 41.5082ZM30.6734 40.09H30.7623L30.6734 40.2759V40.09ZM31.1557 41.1084C31.4451 41.1084 31.4096 40.724 31.4096 40.724C31.4437 40.7169 31.4758 40.702 31.5032 40.6804C31.5306 40.6588 31.5527 40.6311 31.5677 40.5996C31.5827 40.568 31.5902 40.5334 31.5896 40.4985C31.5891 40.4635 31.5804 40.4291 31.5644 40.3981C31.6362 40.3904 31.7024 40.3556 31.7496 40.3007C31.7967 40.2459 31.8213 40.1751 31.8183 40.1027L31.9376 39.9525L31.9224 40.3242L31.176 42.3789L31.1557 41.1084ZM31.8716 41.1084L31.8005 42.8754H31.6863C31.6621 42.8754 31.6388 42.8851 31.6217 42.9023C31.6045 42.9195 31.5949 42.9428 31.5949 42.9671C31.5937 42.9764 31.5937 42.9858 31.5949 42.9951L31.2243 42.8703L31.8716 41.1084ZM33.7577 43.7157C34.3465 43.799 34.9401 43.8441 35.5347 43.8506V44.1052C34.9401 44.0999 34.3465 44.0556 33.7577 43.9728V43.7157ZM33.7577 43.4738L33.74 43.0409H33.7755V43.1708H33.877V43.0409C33.9013 43.0409 33.9245 43.0313 33.9417 43.0141C33.9588 42.9969 33.9684 42.9736 33.9684 42.9493C33.9684 42.925 33.9588 42.9017 33.9417 42.8845C33.9245 42.8673 33.9013 42.8576 33.877 42.8576H33.7171L33.6892 42.1753L34.3441 38.4579C34.7394 38.5241 35.1391 38.5607 35.5398 38.5674V43.6138C34.9396 43.604 34.3408 43.553 33.7476 43.461L33.7577 43.4738ZM34.4 38.2237L35.555 31.6471V38.3306C35.1643 38.3194 34.775 38.2802 34.3898 38.2135L34.4 38.2237ZM34.4 22.3615C34.782 22.2987 35.168 22.2629 35.555 22.2545V28.9381L34.4 22.3615ZM34.3594 22.1272L33.4633 17.142C34.148 17.0274 34.8406 16.967 35.5347 16.9612V22.0076C35.1374 22.016 34.7413 22.0526 34.3492 22.117L34.3594 22.1272ZM34.1258 22.1629C33.7321 22.2402 33.3444 22.3457 32.9657 22.4786L31.242 17.7327C31.8963 17.5004 32.5677 17.3199 33.25 17.1929L34.1258 22.1629ZM33.1637 16.6989L33.2094 16.9535C32.513 17.0816 31.8279 17.2655 31.1608 17.5035L31.072 17.2489C31.7505 17.0089 32.4464 16.8216 33.1536 16.6888L33.1637 16.6989ZM32.7423 22.555C32.3665 22.6976 32.0016 22.8678 31.6507 23.0642L29.1376 18.6951C29.7397 18.3493 30.3688 18.0529 31.0187 17.809L32.7423 22.555ZM30.8486 17.3355L30.9374 17.5901C30.2753 17.841 29.6337 18.1432 29.0183 18.4939L28.8863 18.2648C29.5115 17.903 30.1642 17.5914 30.8384 17.3329L30.8486 17.3355ZM28.932 18.8097L31.4324 23.1813C31.0867 23.3855 30.7566 23.6153 30.4449 23.8688L27.2185 20.0038C27.7543 19.5609 28.3238 19.1608 28.9218 18.8071L28.932 18.8097ZM28.6781 18.3768L28.8076 18.606C28.1984 18.9661 27.6179 19.373 27.0713 19.823L26.9037 19.6219C27.4598 19.1599 28.0514 18.7427 28.6731 18.3743L28.6781 18.3768ZM26.7235 19.7772L26.8936 19.9809C26.3556 20.442 25.854 20.9442 25.3933 21.4831L25.1927 21.3125C25.6614 20.764 26.1715 20.2524 26.7184 19.7823L26.7235 19.7772ZM25.0379 21.4932L25.2384 21.6613C24.7892 22.2106 24.3827 22.7937 24.0225 23.4054L23.7965 23.273C24.1611 22.6471 24.5745 22.0512 25.0328 21.4907L25.0379 21.4932ZM23.6772 23.4792L23.9057 23.6091C23.556 24.2271 23.2547 24.8716 23.0045 25.5365L22.7507 25.4448C23.0048 24.7651 23.313 24.1069 23.6722 23.4767L23.6772 23.4792ZM22.6771 25.6689L22.9309 25.758C22.696 26.4278 22.5126 27.1147 22.3826 27.8127L22.1287 27.7668C22.2544 27.0534 22.436 26.351 22.672 25.6663L22.6771 25.6689ZM22.0754 28.0011L22.3293 28.0469C22.2134 28.7472 22.1514 29.4554 22.144 30.1653H21.8901C21.8932 29.4394 21.9535 28.7149 22.0704 27.9985L22.0754 28.0011ZM21.9815 30.4046L21.8901 30.5396C21.8901 30.4937 21.8901 30.4504 21.8901 30.4046H21.9815ZM14.4878 39.1327H14.2162V37.4777H14.4878V39.1327ZM15.3763 39.1327H15.1021V37.4777H15.3763V39.1327ZM16.2647 39.1327H15.9906V37.4777H16.2647V39.1327ZM17.1507 39.1327H16.8791V37.4777H17.1507V39.1327ZM18.0392 39.1327H17.765V37.4777H18.0392V39.1327ZM18.9277 39.1327H18.6535V37.4777H18.9277V39.1327ZM19.8136 39.1327H19.542V37.4777H19.8136V39.1327ZM20.2629 36.3701H14.6579V34.8247H20.2629V36.3701ZM20.7021 39.1327H20.4305V37.4777H20.7021V39.1327ZM20.5955 36.7928C20.5961 36.7493 20.6138 36.7079 20.6447 36.6774C20.6756 36.6469 20.7172 36.6298 20.7605 36.6298H20.9991V35.95H21.1413V34.5268L21.0016 34.3053L20.8671 34.0812H21.1413V33.7858H21.0956C21.0822 33.7852 21.0691 33.7819 21.0571 33.7762C21.045 33.7704 21.0342 33.7624 21.0252 33.7524C21.0162 33.7425 21.0093 33.7309 21.0049 33.7183C21.0004 33.7057 20.9984 33.6923 20.9991 33.6789C20.9984 33.6655 21.0004 33.6521 21.0049 33.6395C21.0093 33.6269 21.0162 33.6153 21.0252 33.6054C21.0342 33.5954 21.045 33.5874 21.0571 33.5816C21.0691 33.5759 21.0822 33.5726 21.0956 33.572H21.1413V33.493C21.1818 33.4968 21.2226 33.4968 21.2631 33.493C21.363 33.4737 21.457 33.431 21.5373 33.3683V33.5796H21.4865C21.4582 33.5796 21.4311 33.5909 21.4111 33.6109C21.3911 33.631 21.3799 33.6582 21.3799 33.6865C21.3799 33.7149 21.3911 33.7421 21.4111 33.7622C21.4311 33.7822 21.4582 33.7935 21.4865 33.7935H21.8444L21.9206 34.0888H21.2276L21.5373 34.5344V34.7686C21.429 34.8215 21.3376 34.9038 21.2738 35.0063C21.2099 35.1087 21.176 35.2271 21.176 35.3479C21.176 35.4687 21.2099 35.5871 21.2738 35.6895C21.3376 35.7919 21.429 35.8743 21.5373 35.9271V35.9577H21.3799V36.6349H21.126C21.1047 36.6349 21.0836 36.6391 21.0639 36.6473C21.0441 36.6555 21.0262 36.6675 21.0111 36.6827C20.9961 36.6978 20.9841 36.7158 20.9759 36.7355C20.9678 36.7553 20.9636 36.7765 20.9636 36.7979C20.9636 36.8193 20.9678 36.8405 20.9759 36.8602C20.9841 36.88 20.9961 36.898 21.0111 36.9131C21.0262 36.9282 21.0441 36.9402 21.0639 36.9484C21.0836 36.9566 21.1047 36.9608 21.126 36.9608H20.7706C20.7477 36.9623 20.7247 36.9589 20.7031 36.9509C20.6816 36.9429 20.6619 36.9304 20.6454 36.9144C20.6289 36.8983 20.616 36.879 20.6074 36.8576C20.5988 36.8362 20.5947 36.8133 20.5955 36.7902V36.7928ZM21.4256 39.456L21.5144 39.9805H21.3976L21.2986 39.456H21.4256ZM21.1184 36.9557H21.3266L21.4992 37.4777H21.3266L21.1184 36.9557ZM21.1413 39.9805L21.0626 39.6546L21.0194 39.4789V39.456H21.1463L21.2606 39.9805H21.1463H21.1413ZM21.7048 46.9518H21.253V40.6985H21.7048V46.9518ZM21.6566 39.9805L21.583 39.456H21.7099L21.7708 39.9805H21.6566ZM21.7124 37.4777L21.583 36.9557H21.786L21.8825 37.4777H21.7124ZM22.0323 39.456H22.1592L22.1795 39.9805H22.0627L22.0323 39.456ZM22.606 46.9518H22.1541V40.6985H22.606V46.9518ZM22.6948 39.9805H22.5806L22.6009 39.456H22.7278L22.6948 39.9805ZM23.0502 39.456H23.1771L23.101 39.9805H22.9868L23.0502 39.456ZM23.5046 41.0855V46.9416H23.0553V40.6985H23.5046V41.0855ZM23.5325 39.9805H23.5021L23.5325 39.8481V39.9805ZM23.6823 39.7259H23.563L23.6214 39.4713H23.8169C23.7909 39.5135 23.7704 39.5588 23.7559 39.6062H23.7052L23.6823 39.7259ZM25.34 44.4031H24.7536C24.7536 44.2503 24.7663 44.1103 24.7815 43.9779H25.34V44.4031ZM25.34 43.9244H24.7891C24.8056 43.7999 24.8302 43.6766 24.8627 43.5552H25.34V43.9244ZM25.34 43.5018H24.8805C24.9173 43.3745 24.9657 43.2509 25.0252 43.1326H25.34V43.5018ZM25.34 43.0791H25.0557C25.1241 42.9456 25.2094 42.8215 25.3095 42.7099H25.34V43.0791ZM25.7614 44.4031H25.3907V43.9703H25.7588L25.7614 44.4031ZM25.7614 43.9244H25.3907V43.5552H25.7588L25.7614 43.9244ZM25.7614 43.5018H25.3907V43.1326H25.7588L25.7614 43.5018ZM25.7614 43.0791H25.3907V42.7099H25.7588L25.7614 43.0791ZM25.7614 42.6565H25.3907V42.6386C25.5015 42.5375 25.6253 42.4519 25.7588 42.384L25.7614 42.6565ZM26.1828 44.4031H25.8147V43.9703H26.1828V44.4031ZM26.1828 43.9244H25.8147V43.5552H26.1828V43.9244ZM26.1828 43.5018H25.8147V43.1326H26.1828V43.5018ZM26.1828 43.0791H25.8147V42.7099H26.1828V43.0791ZM25.8147 42.6565V42.3458C25.9046 42.3025 25.998 42.2667 26.0939 42.2389C26.1235 42.2415 26.1532 42.2415 26.1828 42.2389V42.6488L25.8147 42.6565ZM26.6016 44.4031H26.2361V43.9703H26.6092L26.6016 44.4031ZM26.6016 43.9244H26.2361V43.5552H26.6092L26.6016 43.9244ZM26.6016 43.5018H26.2361V43.1326H26.6092L26.6016 43.5018ZM26.6016 43.0791H26.2361V42.7099H26.6092L26.6016 43.0791ZM26.6016 42.6565H26.2361V42.2466C26.3107 42.2427 26.384 42.2245 26.4519 42.1931C26.4899 42.1931 26.5407 42.2084 26.6016 42.2262V42.6565ZM26.6575 44.4031V43.9703H27.023V44.3955L26.6575 44.4031ZM28.3304 45.2153V43.7157C28.4378 43.711 28.5424 43.6792 28.6342 43.6231C28.7261 43.567 28.8024 43.4885 28.8558 43.3948C28.8554 43.3855 28.8554 43.3762 28.8558 43.3668V44.0721L28.3304 45.2153ZM31.1583 43.3465V43.0664C31.3664 43.1402 31.5746 43.2064 31.7853 43.2701V43.5425C31.5644 43.4814 31.3588 43.4152 31.1557 43.3465H31.1583ZM34.1537 46.6946H33.8821L33.7907 44.454C34.2758 44.5185 34.7638 44.5585 35.2529 44.5737C35.1811 44.6333 35.1232 44.7079 35.0833 44.7924C35.0434 44.8769 35.0224 44.9691 35.0219 45.0625C35.0164 45.1507 35.0289 45.2391 35.0588 45.3222C35.0886 45.4053 35.1351 45.4814 35.1954 45.5458C35.2557 45.6102 35.3285 45.6615 35.4094 45.6966C35.4902 45.7317 35.5773 45.7498 35.6654 45.7498C35.7535 45.7498 35.8407 45.7317 35.9215 45.6966C36.0023 45.6615 36.0751 45.6102 36.1354 45.5458C36.1957 45.4814 36.2422 45.4053 36.2721 45.3222C36.3019 45.2391 36.3145 45.1507 36.3089 45.0625C36.3089 44.9692 36.2884 44.8771 36.2489 44.7926C36.2095 44.7081 36.152 44.6334 36.0805 44.5737C36.3343 44.5737 36.6034 44.5508 36.8623 44.5279L36.7633 46.6946H34.1537ZM38.4692 46.6946L38.4185 45.4496C38.536 45.4123 38.6403 45.3415 38.7186 45.246C38.7969 45.1504 38.8458 45.0342 38.8595 44.9113C38.8733 44.7883 38.8511 44.6641 38.7958 44.5536C38.7405 44.443 38.6544 44.351 38.5479 44.2885C39.0083 44.1909 39.4633 44.0693 39.9111 43.9244V46.6946H38.4692ZM41.3911 46.6946H40.3173V45.4215C40.3088 45.1887 40.3362 44.956 40.3985 44.7315C40.4779 44.7749 40.5657 44.8008 40.6559 44.8073C40.7461 44.8139 40.8366 44.8011 40.9214 44.7697C41.0406 44.7278 41.1442 44.6506 41.2184 44.5482C41.3098 44.6653 41.3936 44.8869 41.3936 45.4215L41.3911 46.6946ZM40.9341 43.5756H40.9214C41.0788 43.512 41.2362 43.4407 41.3911 43.3719V43.5807L40.9341 43.5756ZM41.8048 46.6946V43.8073L41.9978 44.2172V46.6946H41.8048ZM42.706 45.7143L43.1706 46.6946H42.706V45.7143ZM45.1405 46.6946V42.2466C45.1892 42.2478 45.2378 42.2426 45.2852 42.2313V46.6946H45.1405ZM49.2275 46.6946H48.2553V45.4215C48.2504 45.3546 48.2594 45.2873 48.2816 45.2239C48.3039 45.1606 48.3389 45.1025 48.3845 45.0533C48.4301 45.0041 48.4854 44.9649 48.5468 44.9381C48.6082 44.9113 48.6744 44.8974 48.7414 44.8974C48.8083 44.8974 48.8746 44.9113 48.936 44.9381C48.9974 44.9649 49.0526 45.0041 49.0982 45.0533C49.1438 45.1025 49.1789 45.1606 49.2011 45.2239C49.2234 45.2873 49.2323 45.3546 49.2275 45.4215V46.6946ZM49.2275 43.6927H48.2553V42.9111C48.2641 42.7879 48.3192 42.6726 48.4094 42.5884C48.4996 42.5043 48.6182 42.4575 48.7414 42.4575C48.8646 42.4575 48.9832 42.5043 49.0734 42.5884C49.1636 42.6726 49.2186 42.7879 49.2275 42.9111V43.6927ZM51.0933 46.6946H50.7252V43.0308C50.7252 41.2485 49.1615 41.4216 48.7477 40.6909C48.3314 41.4216 46.7677 41.2485 46.7677 43.0308V46.6946H46.3945V40.0747C46.4306 40.156 46.4844 40.2282 46.5519 40.2861C46.6167 40.3405 46.6915 40.3816 46.7722 40.407C46.8528 40.4324 46.9377 40.4416 47.0219 40.434C47.1061 40.4265 47.188 40.4023 47.2628 40.3629C47.3377 40.3236 47.4041 40.2697 47.4581 40.2046C47.5264 40.1235 47.5727 40.0262 47.5927 39.922H51.0984L51.0933 46.6946ZM54.7615 46.6946H54.1472V45.9791C54.1508 45.941 54.1465 45.9025 54.1345 45.8661C54.1224 45.8297 54.1029 45.7962 54.0772 45.7679C54.0515 45.7395 54.0202 45.7168 53.9852 45.7013C53.9503 45.6858 53.9125 45.6777 53.8743 45.6777C53.8361 45.6777 53.7983 45.6858 53.7633 45.7013C53.7283 45.7168 53.697 45.7395 53.6713 45.7679C53.6456 45.7962 53.6261 45.8297 53.6141 45.8661C53.602 45.9025 53.5977 45.941 53.6014 45.9791V46.6946H52.9845V45.4215C52.9845 44.6424 53.279 44.5304 53.4922 44.4311C53.6304 44.3577 53.7621 44.2725 53.8857 44.1765C54.0104 44.2722 54.1429 44.3574 54.2817 44.4311C54.4797 44.5304 54.7742 44.6424 54.7742 45.4215L54.7615 46.6946ZM54.7615 43.5756H54.1472V42.8678C54.1508 42.8296 54.1465 42.7911 54.1345 42.7547C54.1224 42.7184 54.1029 42.6849 54.0772 42.6565C54.0515 42.6281 54.0202 42.6054 53.9852 42.5899C53.9503 42.5744 53.9125 42.5664 53.8743 42.5664C53.8361 42.5664 53.7983 42.5744 53.7633 42.5899C53.7283 42.6054 53.697 42.6281 53.6713 42.6565C53.6456 42.6849 53.6261 42.7184 53.6141 42.7547C53.602 42.7911 53.5977 42.8296 53.6014 42.8678V43.5756H52.9845V42.3026C52.9845 41.5209 53.279 41.4089 53.4922 41.3096C53.6304 41.2362 53.7621 41.151 53.8857 41.055C54.0104 41.1507 54.1429 41.2359 54.2817 41.3096C54.4797 41.4089 54.7742 41.5209 54.7742 42.3026L54.7615 43.5756ZM57.1553 46.6946H56.079V45.4215C56.079 44.6424 56.2567 44.5304 56.3785 44.4311C56.4651 44.3531 56.5449 44.2679 56.6172 44.1765C56.6886 44.2686 56.7685 44.3539 56.8558 44.4311C56.9751 44.5304 57.1553 44.6424 57.1553 45.4215V46.6946ZM57.1553 43.5756H56.079V42.3026C56.079 41.5209 56.2567 41.4089 56.3785 41.3096C56.4651 41.2316 56.5449 41.1464 56.6172 41.055C56.6886 41.1471 56.7685 41.2324 56.8558 41.3096C56.9751 41.4089 57.1553 41.5209 57.1553 42.3026V43.5756ZM59.803 37.8596H59.5491V37.437C59.5471 37.4084 59.5521 37.3798 59.5636 37.3536C59.5751 37.3275 59.5928 37.3045 59.6152 37.2867C59.6152 37.2692 59.6221 37.2523 59.6345 37.2399C59.6469 37.2275 59.6637 37.2205 59.6812 37.2205C59.6987 37.2205 59.7155 37.2275 59.7278 37.2399C59.7402 37.2523 59.7471 37.2692 59.7471 37.2867C59.7692 37.3048 59.7867 37.3278 59.7981 37.3539C59.8096 37.38 59.8148 37.4085 59.8132 37.437L59.803 37.8596ZM60.1584 37.8596H59.9045V37.437C59.9025 37.4084 59.9075 37.3798 59.919 37.3536C59.9305 37.3275 59.9482 37.3045 59.9705 37.2867C59.9705 37.2692 59.9775 37.2523 59.9899 37.2399C60.0023 37.2275 60.019 37.2205 60.0365 37.2205C60.054 37.2205 60.0708 37.2275 60.0832 37.2399C60.0956 37.2523 60.1025 37.2692 60.1025 37.2867C60.1246 37.3048 60.1421 37.3278 60.1535 37.3539C60.165 37.38 60.1702 37.4085 60.1686 37.437L60.1584 37.8596ZM64.6516 35.0869H64.3038V34.5242C64.3013 34.4863 64.308 34.4484 64.3235 34.4138C64.339 34.3792 64.3628 34.3489 64.3927 34.3256C64.4248 34.2947 64.4537 34.2606 64.479 34.2238C64.5031 34.2614 64.5322 34.2956 64.5653 34.3256C64.5947 34.3492 64.618 34.3796 64.633 34.4142C64.648 34.4488 64.6544 34.4866 64.6516 34.5242V35.0869ZM65.1187 35.0869H64.7709V34.5242C64.7687 34.4866 64.7754 34.4491 64.7904 34.4146C64.8054 34.3801 64.8283 34.3496 64.8572 34.3256C64.8905 34.2951 64.9203 34.2609 64.9461 34.2238C64.9702 34.2614 64.9993 34.2956 65.0324 34.3256C65.0618 34.3492 65.085 34.3796 65.1001 34.4142C65.1151 34.4488 65.1215 34.4866 65.1187 34.5242V35.0869ZM67.9263 34.705C68.0769 34.705 68.2241 34.7498 68.3494 34.8337C68.4746 34.9177 68.5722 35.0369 68.6299 35.1765C68.6875 35.3161 68.7026 35.4697 68.6732 35.6178C68.6438 35.766 68.5713 35.9021 68.4648 36.0089C68.3583 36.1158 68.2226 36.1885 68.0749 36.218C67.9271 36.2474 67.774 36.2323 67.6348 36.1745C67.4957 36.1167 67.3767 36.0188 67.2931 35.8932C67.2094 35.7676 67.1647 35.6199 67.1647 35.4688C67.1637 35.3679 67.1827 35.2677 67.2205 35.1742C67.2583 35.0806 67.3142 34.9955 67.3851 34.9238C67.4559 34.852 67.5402 34.7951 67.6331 34.7562C67.726 34.7174 67.8256 34.6973 67.9263 34.6973V34.705ZM65.5325 39.288L65.4944 38.3128L65.5426 38.3688L65.5325 39.288ZM65.4791 38.155V37.9411H66.0655L66.1544 38.155H65.4791ZM65.4182 35.5656V35.4332H65.5071V35.5656H65.535V37.7298H65.4487L65.3624 35.5656H65.4182ZM69.6093 46.6029H66.3422V41.4369H69.6068L69.6093 46.6029ZM69.6093 40.5865H66.3422V38.3688H69.6068L69.6093 40.5865ZM69.6093 37.7298H66.3422V36.8157H69.6068L69.6093 37.7298ZM69.7642 36.6171H66.1442L66.0554 36.4032H69.8632L69.7642 36.6171Z" fill="#1FC0E8"></path><path d="M83.5867 37.9286V37.7173H83.2999V34.4277H78.4183V37.7173H78.1644V37.9286H78.9742L79.0605 38.1425H78.2533L78.4081 38.3564V40.574H78.1543L78.2431 40.7879L78.398 40.9992V41.2233H78.2431V41.4372H78.398V49.0067H79.2052V47.1455H82.4698V49.0067H83.2796V41.4372H83.4776V41.2233H83.2796V40.9992L83.4776 40.7879L83.5664 40.574H83.2796V38.3691L83.4776 38.1552H82.6703L82.7567 37.9414L83.5867 37.9286ZM80.9061 34.6976C81.0567 34.6976 81.2039 34.7424 81.3292 34.8264C81.4544 34.9103 81.552 35.0296 81.6096 35.1691C81.6673 35.3087 81.6824 35.4623 81.653 35.6105C81.6236 35.7586 81.5511 35.8947 81.4446 36.0016C81.3381 36.1084 81.2023 36.1811 81.0546 36.2106C80.9069 36.2401 80.7538 36.225 80.6146 36.1671C80.4755 36.1093 80.3565 36.0114 80.2728 35.8858C80.1892 35.7602 80.1445 35.6125 80.1445 35.4615C80.1445 35.2589 80.2247 35.0646 80.3675 34.9213C80.5104 34.7781 80.7041 34.6976 80.9061 34.6976ZM82.4901 46.5905H79.2255V41.4372H82.4901V46.5905ZM82.4901 40.574H79.2255V38.3691H82.4901V40.574ZM82.4901 37.7173H79.2255V36.816H82.4901V37.7173ZM79.0707 36.6047L78.9844 36.3908H82.7769L82.6906 36.6047H79.0707Z" fill="#1FC0E8"></path><path d="M81.9767 38.8203H79.7402V39.9762H81.9767V38.8203Z" fill="#1FC0E8"></path><path d="M81.9767 37.002H79.7402V37.473H81.9767V37.002Z" fill="#1FC0E8"></path><path d="M80.9053 36.0277C81.0162 36.0272 81.1244 35.9938 81.2163 35.9317C81.3083 35.8695 81.3798 35.7815 81.4218 35.6786C81.4639 35.5757 81.4746 35.4627 81.4527 35.3537C81.4308 35.2447 81.3772 35.1447 81.2986 35.0663C81.22 34.9878 81.1201 34.9345 81.0113 34.913C80.9026 34.8915 80.7899 34.9028 80.6875 34.9454C80.5852 34.9881 80.4977 35.0602 80.4362 35.1527C80.3746 35.2452 80.3418 35.3538 80.3418 35.465C80.3418 35.5391 80.3564 35.6125 80.3847 35.681C80.4131 35.7494 80.4546 35.8115 80.507 35.8638C80.5594 35.9161 80.6215 35.9575 80.6898 35.9856C80.7582 36.0137 80.8315 36.0281 80.9053 36.0277Z" fill="#1FC0E8"></path><path d="M74.6865 34.9861H74.6281L74.5773 35.4953H74.2752L74.2245 34.9861H74.1661L74.1432 34.7773H70.7949V37.7181H70.9802V37.9192L70.8812 38.1535H70.9422L70.7949 38.3572V40.5748H71.0488L70.9599 40.7887L70.8051 41V41.2241H70.9599V41.4379H70.8051V49.0075H71.4854V38.3546L71.625 38.1H71.5692C71.6472 37.4726 71.9511 36.8955 72.4238 36.4772C72.8965 36.059 73.5053 35.8284 74.1356 35.8289H74.7195C75.3498 35.8284 75.9586 36.059 76.4313 36.4772C76.9039 36.8955 77.2079 37.4726 77.2859 38.1H77.2301L77.3697 38.3546C77.3697 38.3775 77.3697 38.4004 77.3697 38.4259V49.0075H78.0475V41.4379H77.8875V41.2241H78.0424V41L77.8875 40.7887L77.8012 40.5748H78.0424V38.3699L77.9078 38.1662H77.9561L77.8596 37.932V37.7308H78.0424V34.7773H74.7119L74.6865 34.9861ZM74.7347 35.1032C75.4683 35.0934 76.1798 35.3544 76.734 35.8366C77.2882 36.3187 77.6464 36.9883 77.7403 37.7181V37.9422L77.7784 38.0364H77.3798C77.2831 37.3998 76.9691 36.8167 76.4914 36.3865C76.0013 35.9505 75.3695 35.7088 74.7144 35.7067H74.1305C73.4753 35.7078 72.8432 35.9497 72.3536 36.3865C71.8743 36.8157 71.5592 37.3992 71.4626 38.0364H71.0691L71.1097 37.9422V37.7181C71.2031 36.9886 71.5607 36.3189 72.1145 35.8368C72.6683 35.3546 73.3795 35.0935 74.1128 35.1032H74.1305L74.1813 35.5997H74.689L74.7398 35.1032H74.7347Z" fill="#1FC0E8"></path><path d="M3.72441 48.7528C3.32404 46.4464 3.12275 44.1098 3.12278 41.7688C3.12278 19.4394 21.2352 1.28572 43.4853 1.28572C65.7355 1.28572 83.8479 19.4522 83.8479 41.7815C83.8479 44.1225 83.6466 46.4592 83.2463 48.7655H84.5333C84.9225 46.458 85.1178 44.1218 85.1172 41.7815C85.1172 18.752 66.4362 0.0253906 43.4853 0.0253906C20.5345 0.0253906 1.85352 18.7647 1.85352 41.7943C1.85291 44.1345 2.04823 46.4707 2.43739 48.7782L3.72441 48.7528Z" fill="#1FC0E8"></path></g><defs><clipPath id="clip0_2535_16125"><rect width="85" height="74" fill="white" transform="translate(0.998047)"></rect></clipPath></defs></svg>